<svg width="420" height="392" viewBox="0 0 420 392" fill="none" xmlns="http://www.w3.org/2000/svg">
<path d="M210 391.048C325.98 391.048 420 342.915 420 283.541C420 224.166 325.98 176.033 210 176.033C94.0202 176.033 0 224.166 0 283.541C0 342.915 94.0202 391.048 210 391.048Z" fill="#FAFAFA"/>
<path d="M329.72 352.942C361.319 352.942 386.936 337.119 386.936 317.599C386.936 298.08 361.319 282.256 329.72 282.256C298.12 282.256 272.504 298.08 272.504 317.599C272.504 337.119 298.12 352.942 329.72 352.942Z" fill="#E0E0E0"/>
<path d="M193.899 254.181L157.236 233.02C156.627 232.708 155.953 232.546 155.27 232.546C154.586 232.546 153.912 232.708 153.303 233.02L31.7886 303.188C31.5505 303.267 31.3434 303.419 31.1966 303.623C31.0499 303.827 30.9709 304.071 30.9709 304.323C30.9709 304.574 31.0499 304.818 31.1966 305.022C31.3434 305.226 31.5505 305.378 31.7886 305.458L68.4427 326.626C69.0533 326.932 69.7265 327.09 70.4091 327.09C71.0917 327.09 71.7649 326.932 72.3756 326.626L83.2064 320.371L183.059 262.873L193.908 256.494C194.153 256.415 194.367 256.26 194.518 256.052C194.669 255.843 194.75 255.592 194.749 255.334C194.748 255.077 194.665 254.826 194.513 254.619C194.36 254.411 194.145 254.258 193.899 254.181Z" fill="#E0E0E0"/>
<path d="M358.71 304.454L353.044 301.445C353.044 301.445 353.598 273.783 359.335 252.359C365.212 230.425 382.316 206.194 398.479 215.274C414.642 224.354 385.915 243.015 377.275 261.026C368.635 279.036 358.71 304.454 358.71 304.454Z" fill="#006C93"/>
<path opacity="0.15" d="M358.71 304.454L353.044 301.445C353.044 301.445 353.598 273.783 359.335 252.359C365.212 230.425 382.316 206.194 398.479 215.274C414.642 224.354 385.915 243.015 377.275 261.026C368.635 279.036 358.71 304.454 358.71 304.454Z" fill="black"/>
<path d="M357.962 297.891C357.887 297.889 357.813 297.872 357.745 297.841C357.676 297.81 357.614 297.766 357.563 297.711C357.511 297.656 357.471 297.592 357.445 297.522C357.418 297.451 357.406 297.377 357.408 297.301C358.622 254.374 377.389 228.164 393.094 218.767C393.225 218.689 393.381 218.666 393.529 218.703C393.677 218.74 393.804 218.834 393.882 218.965C393.96 219.096 393.983 219.252 393.946 219.4C393.909 219.547 393.814 219.674 393.684 219.752C378.225 228.999 359.757 254.867 358.552 297.328C358.551 297.404 358.534 297.479 358.504 297.548C358.474 297.618 358.43 297.68 358.375 297.733C358.32 297.785 358.255 297.826 358.185 297.853C358.114 297.88 358.038 297.893 357.962 297.891Z" fill="white"/>
<path d="M361.271 305.774L356.212 303.179C356.212 303.179 356.836 289.594 367.245 271.892C376.483 256.169 395.206 243.851 403.072 248.241C409.178 251.638 410.586 259.081 404.735 264.035C398.884 268.988 371.873 279.379 361.271 305.774Z" fill="#006C93"/>
<path d="M359.238 301.437C360.118 301.613 360.426 299.439 360.602 298.885C360.936 297.847 361.288 296.826 361.675 295.806C362.433 293.821 363.294 291.877 364.253 289.981C366.101 286.335 368.265 282.858 370.72 279.59C373.015 276.531 375.516 273.632 378.208 270.915C380.636 268.472 383.191 266.157 385.862 263.982C388.097 262.152 390.42 260.419 392.804 258.791C394.564 257.594 396.324 256.45 398.162 255.377C399.121 254.814 400.08 254.26 401.075 253.749L401.356 253.609C401.514 253.532 401.634 253.395 401.691 253.229C401.748 253.064 401.737 252.882 401.66 252.724C401.583 252.567 401.446 252.446 401.28 252.389C401.115 252.333 400.933 252.344 400.776 252.421C400.16 252.72 399.57 253.054 399.016 253.389C397.467 254.268 395.954 255.148 394.467 256.134C392.262 257.559 390.109 259.067 388.009 260.656C385.405 262.627 382.903 264.718 380.504 266.929C377.769 269.434 375.195 272.108 372.797 274.936C370.196 277.985 367.843 281.236 365.758 284.658C363.54 288.28 361.684 292.111 360.215 296.096C359.939 296.864 359.675 297.63 359.423 298.392C359.053 299.153 358.829 299.977 358.763 300.821C358.774 300.955 358.822 301.083 358.901 301.192C358.98 301.301 359.088 301.385 359.212 301.437H359.238Z" fill="white"/>
<path d="M72.1203 280.329C72.1203 280.329 72.2611 263.076 65.4776 248.796C58.694 234.516 48.0831 224.855 37.3227 222.647C26.5623 220.439 16.6377 229.325 27.3717 237.604C38.1058 245.884 57.823 255.465 64.1226 282.283L72.1203 280.329Z" fill="#006C93"/>
<path opacity="0.15" d="M72.1203 280.329C72.1203 280.329 72.2611 263.076 65.4776 248.796C58.694 234.516 48.0831 224.855 37.3227 222.647C26.5623 220.439 16.6377 229.325 27.3717 237.604C38.1058 245.884 57.823 255.465 64.1226 282.283L72.1203 280.329Z" fill="black"/>
<path d="M67.6331 277.347C67.5209 277.347 67.4128 277.304 67.331 277.227C67.2492 277.15 67.1999 277.045 67.1932 276.933C65.5391 249.315 42.7865 231.357 31.5421 228.296C31.4305 228.265 31.3355 228.191 31.2778 228.09C31.2202 227.99 31.2045 227.871 31.2342 227.759C31.2651 227.645 31.3398 227.548 31.4419 227.488C31.544 227.429 31.6654 227.412 31.7797 227.442C43.2176 230.565 66.3925 248.822 68.073 276.88C68.0758 276.996 68.0347 277.108 67.958 277.195C67.8812 277.281 67.7746 277.335 67.6595 277.347H67.6331Z" fill="white"/>
<path d="M73.5108 304.014C75.6904 301.264 77.153 298.015 77.7673 294.56C78.3816 291.105 78.1283 287.551 77.0302 284.218C76.3915 282.205 75.3697 280.335 74.0211 278.71C72.9389 277.435 71.3816 276.775 70.1146 275.71C67.3871 273.449 64.2197 271.047 63.2343 267.457C62.4424 264.598 62.6096 261.888 61.0259 259.204C60.0928 257.524 58.6068 256.218 56.8203 255.509C54.4887 254.629 51.9196 255.21 49.456 255.509C45.9366 255.905 43.2971 254.691 40.2529 253.072C36.9007 251.312 32.9854 249.922 29.3517 251.004C28.1699 251.354 27.0749 251.949 26.1376 252.749C25.2003 253.55 24.4416 254.538 23.9107 255.65C23.3798 256.763 23.0886 257.974 23.0558 259.206C23.0231 260.439 23.2496 261.664 23.7207 262.803C24.5302 264.774 26.0259 266.375 27.1257 268.205C28.2255 270.035 28.8062 272.129 28.0055 274.126C27.3896 275.604 26.2458 276.766 25.7883 278.27C24.4862 282.23 25.2164 285.749 29.1493 287.79C33.2582 289.893 39.7074 288.309 41.7662 293.474C42.5405 295.436 42.5669 297.609 42.9892 299.677C43.856 303.838 46.2754 307.513 49.7551 309.953C54.4799 313.235 60.8939 312.435 65.7946 310.147C68.8054 308.726 71.4464 306.627 73.5108 304.014Z" fill="#006C93"/>
<path d="M36.4691 279.027C36.5652 279.043 36.6641 279.028 36.7506 278.983C40.216 277.643 43.935 277.088 47.6406 277.355C51.3463 277.623 54.9467 278.708 58.1835 280.532C58.2944 280.591 58.4243 280.604 58.5447 280.568C58.6651 280.531 58.7662 280.449 58.8258 280.338C58.8567 280.284 58.8764 280.224 58.8839 280.162C58.8913 280.1 58.8862 280.038 58.869 279.978C58.8518 279.918 58.8227 279.862 58.7836 279.814C58.7444 279.765 58.696 279.725 58.641 279.696C55.2782 277.807 51.5386 276.687 47.6912 276.416C43.8438 276.146 39.9842 276.731 36.3899 278.13C36.3054 278.176 36.237 278.247 36.1938 278.333C36.1505 278.419 36.1345 278.517 36.1479 278.612C36.1613 278.707 36.2034 278.797 36.2686 278.868C36.3338 278.939 36.4191 278.988 36.5131 279.009L36.4691 279.027Z" fill="white"/>
<path d="M67.1935 304.164C67.0783 304.167 66.9667 304.124 66.8828 304.045C66.7989 303.966 66.7494 303.857 66.7448 303.742C65.9265 283.857 45.963 262.829 32.5806 257.11C32.5266 257.088 32.4775 257.056 32.4362 257.014C32.3949 256.973 32.3622 256.924 32.3401 256.87C32.318 256.816 32.3069 256.758 32.3074 256.699C32.3079 256.641 32.32 256.583 32.3431 256.53C32.3912 256.421 32.4802 256.337 32.5907 256.294C32.7011 256.251 32.824 256.254 32.9326 256.301C46.5261 262.125 66.7976 283.506 67.6334 303.724C67.6358 303.783 67.6265 303.842 67.6061 303.897C67.5857 303.953 67.5546 304.003 67.5145 304.047C67.4745 304.09 67.4263 304.125 67.3727 304.15C67.3191 304.174 67.2612 304.188 67.2023 304.191L67.1935 304.164Z" fill="white"/>
<path d="M177.385 20.0376L77.8044 77.5087C76.8182 78.1524 75.9987 79.0207 75.413 80.0423C74.8272 81.0639 74.4919 82.2098 74.4346 83.386V317.89C74.4346 320.036 75.9479 320.907 77.8044 319.825L177.385 262.337C178.364 261.694 179.179 260.831 179.764 259.816C180.35 258.802 180.689 257.664 180.754 256.494V21.9557C180.754 19.8089 179.241 18.929 177.385 20.0376ZM175.906 239.118C175.906 240.956 174.613 242.127 173.021 243.042L81.834 295.709C80.2503 296.589 78.9481 295.885 78.9481 294.037V99.0208C78.9485 98.0124 79.2146 97.022 79.7197 96.1492C80.2248 95.2765 80.9511 94.5523 81.8252 94.0497L173.012 41.3737C173.304 41.2038 173.637 41.1138 173.975 41.113C174.313 41.1122 174.646 41.2005 174.939 41.3691C175.233 41.5377 175.477 41.7805 175.646 42.0732C175.816 42.366 175.906 42.6982 175.906 43.0366V239.118Z" fill="#455A64"/>
<path d="M175.906 239.118C175.906 240.956 174.613 242.127 173.02 243.042L81.8336 295.709C80.2499 296.589 78.9478 295.885 78.9478 294.037V99.0208C78.9481 98.0124 79.2142 97.022 79.7193 96.1492C80.2244 95.2765 80.9507 94.5523 81.8248 94.0497L173.011 41.3737C173.304 41.2038 173.636 41.1139 173.975 41.113C174.313 41.1122 174.646 41.2005 174.939 41.3691C175.232 41.5377 175.476 41.7805 175.646 42.0732C175.816 42.366 175.905 42.6982 175.906 43.0366V239.118Z" fill="#263238"/>
<path d="M81.8336 295.709L173.02 243.059C173.66 242.713 174.252 242.284 174.78 241.783L78.9478 187.814V294.037C78.9478 295.885 80.2499 296.624 81.8336 295.709Z" fill="#37474F"/>
<path d="M168.524 235.695V43.9694L81.8248 94.0498C80.9507 94.5524 80.2244 95.2766 79.7193 96.1493C79.2142 97.0221 78.9481 98.0125 78.9478 99.0209V289.673L165.638 239.619C167.231 238.704 168.524 237.534 168.524 235.695Z" fill="#006C93"/>
<path d="M77.382 320.063C76.3765 320.487 75.2909 320.688 74.2002 320.651C73.1095 320.615 72.0398 320.342 71.0648 319.852L67.2111 317.626C66.2277 316.989 65.4089 316.128 64.8217 315.114C64.2345 314.101 63.8956 312.962 63.8325 311.792V77.2272C63.8547 76.3578 64.0522 75.5019 64.4132 74.7108C64.5364 74.4381 64.6684 74.1741 64.8179 73.9014L75.376 80.0602C75.1541 80.4569 74.9601 80.8684 74.7953 81.292C74.539 81.9583 74.3991 82.6636 74.3818 83.3772V317.89C74.4346 319.869 75.7191 320.767 77.382 320.063Z" fill="#263238"/>
<path d="M130.568 272.815C132.724 272.815 132.953 275.235 132.953 276.273C132.824 278.353 132.214 280.375 131.171 282.18C130.128 283.984 128.681 285.522 126.943 286.673C126.246 287.116 125.446 287.371 124.62 287.412C122.465 287.412 122.236 284.992 122.236 283.954C122.366 281.874 122.975 279.852 124.016 278.046C125.057 276.241 126.502 274.7 128.237 273.546C128.94 273.11 129.742 272.858 130.568 272.815Z" fill="#006C93"/>
<path d="M127.524 52.5125C128.404 51.9846 129.169 52.407 129.169 53.4628C129.137 54.0336 128.972 54.5889 128.686 55.084C128.4 55.5791 128.002 56.0003 127.524 56.3135C126.644 56.8326 125.87 56.4102 125.87 55.3632C125.9 54.791 126.065 54.2341 126.353 53.7385C126.641 53.2429 127.042 52.8227 127.524 52.5125Z" fill="#263238"/>
<path d="M116.896 66.4051C117.705 65.9388 118.356 66.3171 118.356 67.285C118.329 67.7913 118.183 68.284 117.929 68.7229C117.675 69.1618 117.321 69.5344 116.896 69.8101C116.086 70.2764 115.435 69.8981 115.435 68.9303C115.463 68.4243 115.61 67.932 115.864 67.4934C116.118 67.0547 116.471 66.6819 116.896 66.4051Z" fill="#263238"/>
<path d="M121.779 63.5193L138.135 54.0786C139.015 53.5595 139.754 53.929 139.754 54.8969C139.711 55.4404 139.542 55.9665 139.261 56.4337C138.98 56.9009 138.595 57.2965 138.135 57.5892L121.779 67.0299C120.899 67.549 120.16 67.1794 120.16 66.2116C120.203 65.6681 120.371 65.142 120.652 64.6748C120.933 64.2076 121.319 63.812 121.779 63.5193Z" fill="#263238"/>
<path d="M180.719 21.419C180.473 19.6593 179.074 19.0346 177.393 20.0112L77.7955 77.5087C76.7989 78.1274 75.9802 78.9945 75.4199 80.0251L64.8618 73.8662C65.4309 72.8439 66.2516 71.9838 67.2462 71.3674L166.782 13.8788C167.827 13.3493 168.981 13.0734 170.152 13.0734C171.323 13.0734 172.478 13.3493 173.522 13.8788L177.393 16.096C178.295 16.6944 179.059 17.4791 179.633 18.3973C180.206 19.3154 180.577 20.3458 180.719 21.419Z" fill="#37474F"/>
<path d="M154.597 28.537C154.08 28.813 153.505 28.9625 152.919 28.9733C152.333 28.984 151.753 28.8556 151.227 28.5986C151.05 28.5234 150.898 28.4019 150.785 28.247C150.671 28.0922 150.602 27.9097 150.584 27.7188C150.584 27.4724 150.584 26.5574 150.584 26.3022C150.613 26.0827 150.697 25.8741 150.83 25.6968C150.962 25.5196 151.139 25.3796 151.341 25.2904L162.014 19.1315C162.533 18.8574 163.109 18.7091 163.696 18.6984C164.282 18.6877 164.864 18.8149 165.392 19.0699C165.565 19.1487 165.715 19.2713 165.826 19.4256C165.937 19.5799 166.006 19.7606 166.026 19.9498C166.026 20.2049 166.026 21.1551 166.026 21.4015C165.998 21.6224 165.914 21.8323 165.781 22.0111C165.649 22.1899 165.472 22.3315 165.269 22.4221L154.597 28.537Z" fill="#006C93"/>
<path opacity="0.25" d="M154.597 28.537C154.08 28.813 153.505 28.9625 152.919 28.9733C152.333 28.984 151.753 28.8556 151.227 28.5986C151.05 28.5234 150.898 28.4019 150.785 28.247C150.671 28.0922 150.602 27.9097 150.584 27.7188C150.584 27.4724 150.584 26.5574 150.584 26.3022C150.613 26.0827 150.697 25.8741 150.83 25.6968C150.962 25.5196 151.139 25.3796 151.341 25.2904L162.014 19.1315C162.533 18.8574 163.109 18.7091 163.696 18.6984C164.282 18.6877 164.864 18.8149 165.392 19.0699C165.565 19.1487 165.715 19.2713 165.826 19.4256C165.937 19.5799 166.006 19.7606 166.026 19.9498C166.026 20.2049 166.026 21.1551 166.026 21.4015C165.998 21.6224 165.914 21.8323 165.781 22.0111C165.649 22.1899 165.472 22.3315 165.269 22.4221L154.597 28.537Z" fill="black"/>
<path d="M154.597 27.138L165.269 20.9791C166.237 20.416 166.281 19.545 165.383 19.0259C164.855 18.7709 164.274 18.6436 163.687 18.6543C163.1 18.665 162.524 18.8134 162.005 19.0874L151.332 25.2463C150.373 25.8006 150.321 26.6717 151.227 27.1908C151.753 27.447 152.333 27.5758 152.918 27.5666C153.503 27.5574 154.078 27.4106 154.597 27.138Z" fill="#006C93"/>
<path opacity="0.3" d="M154.597 27.138L165.269 20.9791C166.237 20.416 166.281 19.545 165.383 19.0259C164.855 18.7709 164.274 18.6436 163.687 18.6543C163.1 18.665 162.524 18.8134 162.005 19.0874L151.332 25.2463C150.373 25.8006 150.321 26.6717 151.227 27.1908C151.753 27.447 152.333 27.5758 152.918 27.5666C153.503 27.5574 154.078 27.4106 154.597 27.138Z" fill="black"/>
<path d="M70.5016 112.57C70.4808 111.985 70.3216 111.412 70.0372 110.9C69.7528 110.388 69.3511 109.95 68.8651 109.623C68.7059 109.505 68.5173 109.434 68.3201 109.417C68.1229 109.4 67.9248 109.438 67.7477 109.526C67.5454 109.649 66.7359 110.098 66.5248 110.23C66.3481 110.364 66.209 110.541 66.1211 110.745C66.0332 110.948 65.9995 111.171 66.0232 111.391V137.54C66.0445 138.125 66.2029 138.696 66.4856 139.208C66.7684 139.72 67.1676 140.158 67.6509 140.488C67.81 140.595 67.9939 140.659 68.1849 140.674C68.376 140.69 68.5678 140.656 68.7419 140.576C68.9707 140.461 69.789 139.986 70.0089 139.854C70.1856 139.72 70.3247 139.543 70.4125 139.34C70.5004 139.136 70.5341 138.913 70.5104 138.693L70.5016 112.57Z" fill="#006C93"/>
<path opacity="0.3" d="M70.5016 112.57C70.4808 111.985 70.3216 111.412 70.0372 110.9C69.7528 110.388 69.3511 109.95 68.8651 109.623C68.7059 109.505 68.5173 109.434 68.3201 109.417C68.1229 109.4 67.9248 109.438 67.7477 109.526C67.5454 109.649 66.7359 110.098 66.5248 110.23C66.3481 110.364 66.209 110.541 66.1211 110.745C66.0332 110.948 65.9995 111.171 66.0232 111.391V137.54C66.0445 138.125 66.2029 138.696 66.4856 139.208C66.7684 139.72 67.1676 140.158 67.6509 140.488C67.81 140.595 67.9939 140.659 68.1849 140.674C68.376 140.69 68.5678 140.656 68.7419 140.576C68.9707 140.461 69.789 139.986 70.0089 139.854C70.1856 139.72 70.3247 139.543 70.4125 139.34C70.5004 139.136 70.5341 138.913 70.5104 138.693L70.5016 112.57Z" fill="black"/>
<path d="M69.2876 113.3V139.449C69.2876 140.558 68.5574 141.033 67.6511 140.514C67.1678 140.185 66.7686 139.746 66.4858 139.234C66.2031 138.722 66.0447 138.151 66.0234 137.566V111.391C66.0234 110.274 66.7537 109.799 67.6511 110.318C68.1409 110.65 68.5446 111.093 68.8292 111.612C69.1137 112.13 69.2709 112.709 69.2876 113.3Z" fill="#006C93"/>
<path opacity="0.4" d="M69.2876 113.3V139.449C69.2876 140.558 68.5574 141.033 67.6511 140.514C67.1678 140.185 66.7686 139.746 66.4858 139.234C66.2031 138.722 66.0447 138.151 66.0234 137.566V111.391C66.0234 110.274 66.7537 109.799 67.6511 110.318C68.1409 110.65 68.5446 111.093 68.8292 111.612C69.1137 112.13 69.2709 112.709 69.2876 113.3Z" fill="black"/>
<path d="M70.5019 147.614C70.481 147.029 70.3219 146.456 70.0374 145.944C69.753 145.432 69.3514 144.994 68.8654 144.667C68.7061 144.549 68.5175 144.478 68.3203 144.461C68.1231 144.444 67.925 144.482 67.748 144.57C67.5456 144.693 66.7362 145.142 66.525 145.274C66.3483 145.408 66.2092 145.585 66.1214 145.789C66.0335 145.992 65.9998 146.215 66.0235 146.435V158.753C66.0461 159.336 66.2051 159.906 66.4878 160.416C66.7705 160.926 67.169 161.363 67.6512 161.692C67.805 161.806 67.9865 161.876 68.1767 161.896C68.367 161.916 68.5592 161.885 68.7334 161.806C68.9621 161.692 69.7804 161.217 70.0004 161.085C70.1763 160.952 70.315 160.776 70.4029 160.574C70.4908 160.372 70.5249 160.151 70.5019 159.932V147.614Z" fill="#006C93"/>
<path opacity="0.3" d="M70.5019 147.614C70.481 147.029 70.3219 146.456 70.0374 145.944C69.753 145.432 69.3514 144.994 68.8654 144.667C68.7061 144.549 68.5175 144.478 68.3203 144.461C68.1231 144.444 67.925 144.482 67.748 144.57C67.5456 144.693 66.7362 145.142 66.525 145.274C66.3483 145.408 66.2092 145.585 66.1214 145.789C66.0335 145.992 65.9998 146.215 66.0235 146.435V158.753C66.0461 159.336 66.2051 159.906 66.4878 160.416C66.7705 160.926 67.169 161.363 67.6512 161.692C67.805 161.806 67.9865 161.876 68.1767 161.896C68.367 161.916 68.5592 161.885 68.7334 161.806C68.9621 161.692 69.7804 161.217 70.0004 161.085C70.1763 160.952 70.315 160.776 70.4029 160.574C70.4908 160.372 70.5249 160.151 70.5019 159.932V147.614Z" fill="black"/>
<path d="M69.2876 148.274V160.592C69.2876 161.7 68.5574 162.184 67.6511 161.656C67.1678 161.327 66.7686 160.889 66.4858 160.377C66.2031 159.865 66.0447 159.293 66.0234 158.709V146.391C66.0234 145.283 66.7537 144.799 67.6511 145.318C68.1363 145.648 68.5372 146.088 68.8214 146.601C69.1057 147.115 69.2654 147.688 69.2876 148.274Z" fill="#006C93"/>
<path opacity="0.4" d="M69.2876 148.274V160.592C69.2876 161.7 68.5574 162.184 67.6511 161.656C67.1678 161.327 66.7686 160.889 66.4858 160.377C66.2031 159.865 66.0447 159.293 66.0234 158.709V146.391C66.0234 145.283 66.7537 144.799 67.6511 145.318C68.1363 145.648 68.5372 146.088 68.8214 146.601C69.1057 147.115 69.2654 147.688 69.2876 148.274Z" fill="black"/>
<path d="M99.6594 125.786C99.7469 126.213 99.8645 126.633 100.011 127.044C100.583 128.592 101.613 130.053 101.525 131.707C101.428 133.572 99.9585 135.015 98.8323 136.502C97.3687 138.468 96.3933 140.754 95.9864 143.171C95.5795 145.588 95.7528 148.067 96.492 150.403C97.5737 153.25 99.0743 155.919 100.944 158.322L105.194 164.349C106.479 166.036 108.118 167.421 109.997 168.405C113.649 170.469 117.724 171.673 121.911 171.924C128.793 172.389 135.639 170.594 141.408 166.812C147.523 162.765 144.83 152.383 151.086 148.591C158.653 144.016 162.26 128.126 152.986 121.492C152.986 121.492 154.482 111.761 151.737 109.28C149.001 106.991 145.616 105.618 142.059 105.356C137.149 104.845 132.231 105.804 127.33 105.787C122.285 105.771 117.245 106.085 112.241 106.728C110.481 106.966 108 107.608 107.05 109.324C106.782 109.997 106.709 110.732 106.839 111.444C106.825 112.575 106.421 113.666 105.695 114.532C104.604 115.852 103.056 116.741 101.894 117.981C100.936 119.016 100.234 120.261 99.846 121.617C99.4578 122.973 99.3938 124.401 99.6594 125.786Z" fill="#263238"/>
<path d="M148.49 139.828C156.409 140.048 157.438 141.737 164.53 148.758C170.425 154.591 189.957 172.619 189.957 172.619L213.361 178.849L207.836 193.128C207.836 193.128 202.557 192.908 191.999 192.9C185.514 192.9 183.262 191.448 176.733 187.093C173.408 184.867 154.641 172.584 154.641 172.584L148.49 139.828Z" fill="#E6E6E6"/>
<path d="M239.255 149.972L196.362 165.088L184.537 216.119L185.496 217.139L226.277 201.927L240.205 150.993L239.255 149.972Z" fill="#006C93"/>
<path opacity="0.35" d="M197.313 166.109L185.496 217.139L184.537 216.119L196.362 165.088L197.313 166.109Z" fill="black"/>
<path opacity="0.25" d="M240.205 150.993L197.313 166.109L185.496 217.139L226.277 201.927L240.205 150.993Z" fill="black"/>
<g opacity="0.2">
<path d="M219.898 191.545C220.294 192.548 223.585 194.756 228.345 194.36L229.145 191.422L219.898 191.545Z" fill="black"/>
</g>
<g opacity="0.1">
<path d="M227.289 161.445L227.641 159.73C227.834 158.788 225.318 159.281 222.019 160.838L214.276 163.179C210.977 164.736 207.862 165.897 207.66 166.839L207.308 168.546L227.289 161.445Z" fill="black"/>
</g>
<path d="M229.84 153.703C229.963 153.113 228.96 153.237 227.614 153.597L225.142 154.433C225.142 154.433 226.154 151.952 220.303 153.553C213.871 155.313 213.73 158.507 213.73 158.507C212.724 158.943 211.693 159.319 210.642 159.633C208.504 160.328 208.275 160.742 208.099 161.34L207.783 162.422L229.647 154.732C229.647 154.732 229.752 154.292 229.84 153.703Z" fill="#37474F"/>
<path d="M227.535 156.985C225.512 157.865 224.676 158.348 224.368 159.809C224.025 161.472 223.954 162.167 223.954 162.167L212.569 166.654C212.569 166.654 213.185 164.199 213.335 163.381C213.484 162.563 211.98 162.563 210.009 163.469L210.475 161.428L228.186 154.855L227.535 156.985Z" fill="#37474F"/>
<path d="M227.87 161.472C227.87 161.472 228.037 160.706 228.23 159.756C228.424 158.806 225.908 159.307 222.608 160.865L214.866 163.205C211.566 164.762 208.443 165.924 208.249 166.865L207.897 168.625L227.87 161.472Z" fill="#37474F"/>
<path d="M235.436 168.449C235.436 168.449 233.914 174.045 233.509 175.488C233.105 176.93 226.083 180.142 222.573 180.582C215.851 181.418 215.086 182.869 216.696 187.621C218.191 192.02 222.564 193.691 228.635 192.979C231.486 192.644 235.419 190.119 236.967 185.711C238.938 180.08 237.847 174.071 238.665 170.754C239.483 167.437 237.143 166.487 235.436 168.449Z" fill="#FFA8A7"/>
<path d="M168.973 245.4L164.424 248.039L162.515 249.139L137.492 263.577L134.079 265.513L128.316 268.839L130.075 250.881L133.436 216.11V215.749L133.595 214.192L137.994 168.73L139.921 148.837L140.598 141.702L140.827 139.397H140.95C142.988 138.83 145.142 138.83 147.179 139.397C147.634 139.534 148.075 139.711 148.499 139.925C151.139 141.236 152.898 143.787 154.359 146.471C154.718 147.124 155.041 147.797 155.327 148.485C156.412 151.093 157.248 153.797 157.825 156.562C158.978 161.665 160.465 166.883 161.054 175.109C161.147 177.227 161.035 179.348 160.72 181.444C160.324 186.99 160.256 192.554 160.518 198.108C161.257 210.69 164.424 216.391 168.973 245.4Z" fill="#E0E0E0"/>
<path d="M162.515 249.121L137.493 263.56L134.079 265.513L128.316 268.839L124.348 271.126L100.258 285.028C100.513 275.349 100.627 264.853 100.399 254.937C100.328 251.62 100.302 248.233 100.443 244.766C100.9 232.73 103.188 219.823 111.388 206.238L111.766 205.552C112.734 211.297 121.532 215.028 129.451 215.907L130.331 215.987C131.325 216.083 132.354 216.127 133.419 216.127H134.088C140.783 216.066 148.711 214.491 157.843 211.403C158.723 216.506 159.603 223.201 160.544 231.032C160.967 234.551 161.395 238.302 161.829 242.285C162.005 244.511 162.278 246.79 162.515 249.121Z" fill="#FFA8A7"/>
<path d="M164.424 248.022L162.515 249.121L137.492 263.56L134.079 265.513L128.316 268.839L124.348 271.126L100.258 285.028L97.6182 286.55C97.7501 276.132 97.8381 265.926 97.8293 259.521C97.8293 253.565 97.9613 248.268 98.2868 243.57C98.9291 234.296 100.266 227.319 102.501 222.04C105.123 216.262 108.225 210.714 111.775 205.455C111.775 205.455 113.974 212.881 130.427 214.051H130.533C131.501 214.121 132.521 214.165 133.595 214.183H134.844C155.327 214.183 157.588 209.018 157.588 209.018C159.589 216.613 161.172 224.311 162.33 232.079C162.764 234.824 163.184 237.757 163.589 240.877C163.888 243.165 164.169 245.54 164.424 248.022Z" fill="#006C93"/>
<path opacity="0.4" d="M164.424 248.022L162.515 249.121L137.492 263.56L134.079 265.513L128.316 268.839L124.348 271.126L100.258 285.028L97.6182 286.55C97.7501 276.132 97.8381 265.926 97.8293 259.521C97.8293 253.565 97.9613 248.268 98.2868 243.57C98.9291 234.296 100.266 227.319 102.501 222.04C105.123 216.262 108.225 210.714 111.775 205.455C111.775 205.455 113.974 212.881 130.427 214.051H130.533C131.501 214.121 132.521 214.165 133.595 214.183H134.844C155.327 214.183 157.588 209.018 157.588 209.018C159.589 216.613 161.172 224.311 162.33 232.079C162.764 234.824 163.184 237.757 163.589 240.877C163.888 243.165 164.169 245.54 164.424 248.022Z" fill="black"/>
<path opacity="0.2" d="M152.678 236.346C152.678 236.346 150.391 243.614 140.765 247.687L140.308 249.913L137.492 263.559L134.079 265.513L136.12 250.459L137 243.913C142.948 243.296 148.494 240.619 152.678 236.346Z" fill="black"/>
<path d="M123.406 141.5L113.728 142.52C107.323 144.086 104.428 146.919 103.768 152.577C103.46 155.216 101.868 162.255 104.103 171.053C106.126 179.042 111.529 198.592 111.529 198.592C111.529 198.592 99.0964 214.816 96.844 242.637C119.597 257.489 154.5 249.509 163.941 240.534C163.149 232.035 157.72 208.71 157.043 201.135C157.043 201.135 157.544 189.301 158.486 184.172C165.683 176.315 164.768 168.801 161.539 162.739C155.573 151.547 146.581 141.711 143.669 141.719L123.406 141.5Z" fill="#006C93"/>
<path opacity="0.7" d="M123.406 141.5L113.728 142.52C107.323 144.086 104.428 146.919 103.768 152.577C103.46 155.216 101.868 162.255 104.103 171.053C106.126 179.042 111.529 198.592 111.529 198.592C111.529 198.592 99.0964 214.816 96.844 242.637C119.597 257.489 154.5 249.509 163.941 240.534C163.149 232.035 157.72 208.71 157.043 201.135C157.043 201.135 157.544 189.301 158.486 184.172C165.683 176.315 164.768 168.801 161.539 162.739C155.573 151.547 146.581 141.711 143.669 141.719L123.406 141.5Z" fill="white"/>
<path d="M131.791 202.076C131.791 202.252 131.791 202.411 131.791 202.543V202.771C131.797 202.845 131.797 202.918 131.791 202.991C131.457 206.511 131.061 210.25 130.638 214.06C130.638 214.06 130.638 214.06 130.638 214.113C130.577 214.728 130.506 215.344 130.436 215.969C129.143 227.451 127.603 239.725 126.415 250.899C126.125 253.609 125.861 256.248 125.623 258.817C125.254 262.662 124.858 266.877 124.453 271.135L100.363 285.036L97.7237 286.559L90.9929 290.439C92.3479 277.109 95.5065 246.227 97.2662 232.29C97.4685 230.715 97.7325 229.14 98.0316 227.574L98.2692 226.43L98.3748 225.964C98.4891 225.436 98.6035 224.926 98.7267 224.407C98.8499 223.888 98.9643 223.448 99.0786 222.981C99.3514 221.917 99.6417 220.87 99.9585 219.849C100.108 219.356 100.249 218.864 100.407 218.38C100.566 217.896 100.698 217.412 100.856 216.937C101.173 215.987 101.481 215.054 101.806 214.148C101.802 214.13 101.802 214.112 101.806 214.095C101.956 213.664 102.114 213.215 102.272 212.81C102.484 212.212 102.704 211.631 102.924 211.051L103.187 210.356C103.319 210.039 103.434 209.731 103.557 209.423C103.988 208.341 104.437 207.311 104.833 206.352C104.921 206.141 105.018 205.93 105.106 205.728C105.194 205.525 105.334 205.226 105.44 204.98C105.704 204.364 105.968 203.792 106.223 203.22C106.329 202.974 106.443 202.736 106.548 202.507C106.654 202.279 106.804 201.98 106.918 201.733L107.085 201.381L107.261 201.038C107.273 200.993 107.294 200.951 107.323 200.915C107.347 200.851 107.376 200.789 107.411 200.73C107.432 200.691 107.45 200.65 107.464 200.607C107.537 200.483 107.601 200.353 107.657 200.22L108.247 199.076C108.247 199.015 108.308 198.971 108.326 198.918L108.555 198.495L101.234 168.141L97.5917 153.061V152.814C97.7589 151.477 98.8763 145.168 105.317 143.25C108.953 142.312 112.677 141.757 116.429 141.596C117.872 141.508 119.174 141.473 120.239 141.447H121.919H122.931C122.933 141.467 122.933 141.488 122.931 141.508C122.984 141.64 123.133 142.036 123.362 142.652C123.387 142.755 123.422 142.855 123.468 142.951C123.469 142.966 123.469 142.981 123.468 142.995C125.051 147.342 129.495 159.994 131.703 170.983C132.09 172.883 132.407 174.74 132.636 176.499C133.296 181.998 132.812 191.202 131.791 202.076Z" fill="#FAFAFA"/>
<path d="M108.792 183.96C108.792 183.96 109.672 179.623 110.966 170.253C112.47 159.448 111.933 154.108 110.306 150.694L101.129 168.194L108.449 198.548C108.449 198.548 100.927 212.326 97.8911 227.583C105.088 207.25 112.963 201.188 112.963 201.188L108.792 183.96Z" fill="#E6E6E6"/>
<path d="M140.941 134.725C143.792 134.725 144.126 135.2 146.581 138.49C148.042 140.452 157.289 155.718 157.289 155.718C157.289 155.718 149.933 146.039 144.382 143.101C143.313 142.474 142.156 142.012 140.95 141.728L140.941 134.725Z" fill="#EBEBEB"/>
<path d="M119.86 167.164C119.86 166.284 119.772 164.384 119.623 161.991C118.893 150.254 118.541 139.696 122.5 138.816L122.843 140.435C119.957 141.06 120.907 156.166 121.268 161.85C121.426 164.296 121.55 166.249 121.506 167.2L119.86 167.164Z" fill="#006C93"/>
<path d="M106.663 90.3191L112.822 95.3606C113.157 94.9774 113.41 94.5298 113.565 94.0454C113.721 93.5609 113.777 93.0498 113.728 92.5432C113.679 92.0367 113.528 91.5454 113.283 91.0994C113.038 90.6534 112.704 90.2622 112.303 89.9496C111.493 89.28 110.458 88.9452 109.409 89.0139C108.361 89.0826 107.378 89.5496 106.663 90.3191Z" fill="#263238"/>
<path d="M122.746 135.473C122.746 131.61 113.746 125.794 109.1 117.673C104.454 109.552 106.777 96.1965 113.147 94.1465C113.2 94.1465 113.376 92.4308 113.402 92.3076C113.755 90.758 114.348 89.2735 115.162 87.9084C117.758 83.4388 123.257 79.9899 128.36 79.2684C148.534 76.3297 157.808 84.1691 161.512 92.7915C162.713 95.6921 163.248 98.8248 163.078 101.959C162.974 104.262 162.12 106.467 160.646 108.238C159.172 110.009 157.158 111.25 154.913 111.77L122.746 135.473Z" fill="#263238"/>
<path d="M150.734 89.9056C154.684 91.6653 158.441 97.6746 158.38 114.585C158.327 128.927 153.928 132.551 151.711 133.616C149.493 134.681 145.156 134.135 140.941 133.493V141.728C140.941 141.728 144.1 144.834 142.991 146.787C141.883 148.74 137.791 150.395 131.43 148.397C124.224 146.136 122.579 141.359 122.579 141.359L122.412 123.287C122.412 123.287 119.992 125.829 115.725 122.099C112.206 119.011 110.939 113.723 113.587 110.819C116.235 107.916 119.632 107.687 122.693 110.934L124.893 109.772C128.817 109.315 134.571 108.655 138.812 106.517C149.687 100.983 150.813 94.9823 150.734 89.9056Z" fill="#FFA8A7"/>
<path d="M122.755 108.593L122.808 116.512C123.316 116.525 123.822 116.435 124.295 116.246C124.767 116.056 125.195 115.772 125.554 115.412C125.912 115.051 126.193 114.62 126.379 114.147C126.565 113.673 126.652 113.167 126.635 112.658C126.626 111.615 126.219 110.614 125.499 109.859C124.778 109.104 123.797 108.651 122.755 108.593Z" fill="#263238"/>
<path d="M151.104 109.72C151.107 110.092 151.22 110.454 151.428 110.763C151.636 111.071 151.93 111.312 152.274 111.455C152.617 111.598 152.995 111.637 153.361 111.567C153.726 111.498 154.063 111.322 154.33 111.063C154.596 110.803 154.781 110.471 154.86 110.108C154.94 109.744 154.911 109.365 154.778 109.018C154.644 108.671 154.412 108.37 154.109 108.154C153.806 107.938 153.446 107.815 153.075 107.802C152.819 107.796 152.564 107.841 152.326 107.935C152.087 108.028 151.87 108.168 151.687 108.347C151.503 108.526 151.357 108.739 151.257 108.975C151.157 109.21 151.105 109.464 151.104 109.72Z" fill="black"/>
<path d="M135.926 110.564C135.911 110.837 135.95 111.11 136.04 111.368C136.13 111.626 136.27 111.863 136.453 112.067C136.635 112.271 136.856 112.436 137.102 112.554C137.348 112.672 137.616 112.741 137.888 112.755C138.165 112.757 138.44 112.705 138.697 112.601C138.953 112.497 139.187 112.343 139.384 112.149C139.581 111.954 139.737 111.722 139.845 111.467C139.952 111.212 140.008 110.938 140.009 110.661C140.018 110.393 139.973 110.126 139.879 109.875C139.784 109.624 139.641 109.394 139.458 109.198C139.274 109.003 139.054 108.845 138.81 108.735C138.565 108.624 138.302 108.563 138.034 108.554C137.766 108.545 137.498 108.589 137.247 108.684C136.996 108.779 136.767 108.922 136.571 109.105C136.375 109.289 136.218 109.509 136.107 109.753C135.996 109.997 135.935 110.261 135.926 110.529V110.564Z" fill="black"/>
<path d="M156.136 106.174L151.236 104.23C151.349 103.9 151.529 103.597 151.765 103.34C152.001 103.083 152.287 102.878 152.606 102.737C152.924 102.595 153.269 102.521 153.617 102.519C153.966 102.517 154.311 102.587 154.632 102.725C155.277 102.997 155.794 103.506 156.074 104.149C156.354 104.791 156.376 105.516 156.136 106.174Z" fill="black"/>
<path d="M146.458 108.171L146.212 119.908L152.52 118.509L146.458 108.171Z" fill="#F28F8F"/>
<path d="M139.023 122.301L145.182 124.211C145.093 124.63 144.918 125.027 144.668 125.377C144.419 125.726 144.1 126.021 143.732 126.242C143.364 126.463 142.955 126.606 142.529 126.662C142.104 126.718 141.671 126.687 141.258 126.569C140.413 126.275 139.712 125.67 139.296 124.877C138.881 124.085 138.784 123.163 139.023 122.301Z" fill="#B16668"/>
<path d="M142.429 126.674C142.422 125.818 142.076 124.999 141.468 124.395C140.86 123.792 140.038 123.454 139.182 123.454C139.097 123.45 139.012 123.45 138.927 123.454C138.958 124.141 139.196 124.803 139.608 125.354C140.021 125.905 140.59 126.319 141.241 126.542C141.623 126.668 142.028 126.713 142.429 126.674Z" fill="#F28F8F"/>
<path d="M140.942 133.537C136.498 133.009 127.339 130.457 125.852 126.736C126.448 128.604 127.591 130.25 129.134 131.46C131.897 133.836 140.942 136.308 140.942 136.308V133.537Z" fill="#F28F8F"/>
<path d="M122.535 134.769C121.374 134.531 120.344 135.041 119.394 136.643C118.444 138.244 116.359 141.658 116.359 141.658C116.359 141.658 115.276 152.911 116.359 155.735C117.291 158.164 127.577 167.27 127.577 167.27C127.577 167.27 124.893 177.379 124.796 180.696C124.7 184.013 130.955 196.604 131.712 203.044C131.712 203.044 133.938 182.808 132.979 175.514C131.325 162.871 125.395 146.541 122.597 141.35L122.535 134.769Z" fill="#EBEBEB"/>
<path d="M128.826 176.649C128.14 175.015 127.331 173.436 126.406 171.924C124.946 169.505 123.142 167.182 121.515 166.584C121.268 166.486 121.006 166.432 120.74 166.425H120.652C120.384 166.44 120.122 166.506 119.878 166.619C118.593 167.191 117.238 168.942 116.139 170.956C115.012 172.98 114.084 175.107 113.367 177.309C112.945 178.673 113.13 181.567 113.631 184.876C114.617 191.298 116.807 199.322 118.03 200.906C118.927 202.013 119.986 202.977 121.171 203.766C120.445 204.246 119.662 204.633 118.84 204.918C118.375 205.088 117.883 205.174 117.388 205.173V206.326H117.529C118.052 206.318 118.571 206.232 119.069 206.071C120.222 205.697 121.311 205.148 122.298 204.443C123.339 205.063 124.47 205.52 125.65 205.798C126.205 205.931 126.78 205.967 127.348 205.904L127.207 204.76C126.714 204.802 126.218 204.763 125.738 204.646C124.891 204.425 124.076 204.1 123.309 203.678C124.426 202.789 125.405 201.739 126.213 200.563C126.899 199.516 127.744 195.909 128.377 191.765C128.764 189.292 129.081 186.635 129.257 184.216C129.451 180.837 129.363 177.942 128.826 176.649ZM125.192 199.93C124.367 201.12 123.354 202.169 122.192 203.035C120.958 202.273 119.858 201.313 118.937 200.194C117.793 198.707 115.681 190.876 114.731 184.7C114.247 181.576 114.071 178.875 114.458 177.661C115.176 175.432 116.125 173.286 117.291 171.256C118.505 169.162 119.799 167.622 120.696 167.587C121.761 167.587 123.485 169.514 125.095 171.986C125.421 172.47 125.729 172.998 126.028 173.526C126.684 174.663 127.272 175.838 127.788 177.045C128.272 178.242 128.324 180.943 128.105 184.084C127.981 185.843 127.788 187.682 127.541 189.512C126.873 194.29 125.931 198.768 125.192 199.903V199.93Z" fill="#455A64"/>
<path d="M128.923 205.226C128.937 205.562 128.85 205.894 128.675 206.181C128.5 206.468 128.243 206.696 127.938 206.837C127.633 206.978 127.293 207.025 126.961 206.973C126.629 206.92 126.32 206.77 126.073 206.542C125.826 206.314 125.653 206.017 125.575 205.69C125.496 205.364 125.517 205.021 125.634 204.706C125.75 204.39 125.958 204.117 126.23 203.92C126.503 203.723 126.827 203.611 127.163 203.598C127.612 203.582 128.049 203.744 128.379 204.049C128.709 204.354 128.905 204.777 128.923 205.226Z" fill="#263238"/>
<path d="M119.06 205.684C119.075 206.02 118.991 206.353 118.816 206.641C118.642 206.929 118.386 207.158 118.082 207.301C117.777 207.443 117.436 207.491 117.104 207.44C116.771 207.388 116.462 207.239 116.214 207.011C115.966 206.784 115.792 206.487 115.713 206.16C115.634 205.833 115.654 205.49 115.77 205.174C115.887 204.859 116.094 204.585 116.367 204.387C116.639 204.19 116.964 204.077 117.3 204.065C117.522 204.055 117.744 204.09 117.952 204.166C118.161 204.242 118.352 204.359 118.516 204.509C118.679 204.66 118.811 204.841 118.905 205.042C118.998 205.244 119.051 205.462 119.06 205.684Z" fill="#263238"/>
<path d="M129.116 184.198L128.14 184.128C128.04 184.119 127.948 184.071 127.882 183.996C127.817 183.921 127.783 183.823 127.788 183.723C127.99 180.494 127.885 178.118 127.489 177.168C125.782 172.998 122.21 167.771 120.705 167.833C119.201 167.895 116.086 173.411 114.731 177.705C114.423 178.69 114.52 181.066 114.986 184.268C115.002 184.366 114.978 184.466 114.92 184.547C114.863 184.627 114.776 184.682 114.678 184.699L113.71 184.849C113.609 184.861 113.507 184.833 113.426 184.771C113.345 184.708 113.292 184.616 113.279 184.515C112.743 180.925 112.681 178.461 113.086 177.186C113.807 174.88 117.212 166.249 120.635 166.108C124.057 165.968 128.184 174.273 129.099 176.517C129.6 177.749 129.75 180.212 129.521 183.828C129.514 183.93 129.468 184.026 129.393 184.095C129.318 184.163 129.219 184.2 129.116 184.198Z" fill="#006C93"/>
<path d="M108.018 143.136C101.577 143.03 98.6035 145.204 94.521 150.667C91.2832 155.005 78.6839 178.444 74.5047 185.289L51.7521 173.13C47.1505 169.953 45.6636 164.938 42.7513 162.009C39.839 159.079 36.8212 158.489 33.6186 156.07C30.416 153.65 29.1138 151.767 28.19 154.028C27.2661 156.29 30.8295 159.95 31.507 160.856C32.1844 161.762 35.7566 163.777 31.1198 163.847C26.4831 163.918 17.3064 159.114 15.0716 158.26C12.8368 157.407 12.9688 160.073 14.0686 161.78C15.1684 163.487 15.1156 168.308 16.972 171.097C18.9341 174.054 20.0075 175.338 24.3803 177.256C28.4451 179.016 36.9796 179.72 41.2996 182.421C45.6196 185.122 56.3272 194.642 62.838 200.352C71.1173 207.611 76.8275 208.939 81.4378 204.584C85.9162 199.894 90.4562 194.395 92.6734 191.606C98.6475 184.084 108.097 166.971 108.097 166.971C108.097 166.971 112.188 158.172 108.018 143.136Z" fill="#FFA8A7"/>
<path d="M108.906 142.494C99.4217 142.494 96.5887 145.925 91.7319 153.852C86.8752 161.78 74.4167 184.471 74.4167 184.471L56.4768 175.074C56.4768 175.074 53.2478 182.183 49.8164 189.512C49.8164 189.512 59.9697 198.311 64.7737 202.472C69.5776 206.634 75.9476 209.898 81.8514 204.804C88.1598 199.366 108.616 171.115 108.616 171.115C113.473 162.299 112.391 148.934 108.906 142.494Z" fill="#F0F0F0"/>
<path d="M74.4167 184.471C77.3466 187.92 80.8924 191.8 80.734 194.853C80.734 194.853 82.74 192.143 75.6925 182.157L74.4167 184.471Z" fill="#E0E0E0"/>
<path d="M40.4814 99.8567L33.1435 104.062L33.1699 95.6335L27.6797 92.4661L14.8781 99.8567V114.638L2.07642 122.029V136.81L7.56661 139.977L14.8781 135.754V144.209L20.3683 147.377L33.1699 139.977V125.196L45.9716 117.805V103.024L40.4814 99.8567Z" fill="#006C93"/>
<path d="M7.56665 125.196V139.977L20.3683 132.587V147.377L33.17 139.977V125.196L45.9716 117.805V103.024L33.126 110.441L33.17 95.6335L20.3683 103.024V117.805L7.56665 125.196Z" fill="#006C93"/>
<g opacity="0.2">
<path d="M7.56661 139.977L2.07642 136.81V122.029L7.56661 125.196V139.977Z" fill="black"/>
<path d="M20.3681 103.024L14.8779 99.8567V114.638L20.3681 117.805V103.024Z" fill="black"/>
<path d="M20.3681 147.377L14.8779 144.209V135.754L20.3681 132.587V147.377Z" fill="black"/>
</g>
<g opacity="0.5">
<path d="M20.3683 117.805L14.8781 114.638L2.07642 122.029L7.56661 125.196L20.3683 117.805Z" fill="white"/>
<path d="M33.1698 95.6335L27.6796 92.4661L14.8779 99.8567L20.3681 103.024L33.1698 95.6335Z" fill="white"/>
<path d="M45.9716 103.024L40.4814 99.8567L33.1436 104.062L33.126 110.441L45.9716 103.024Z" fill="white"/>
</g>
<path d="M251.045 70.1885C250.812 69.9872 250.562 69.8075 250.297 69.6518C249.364 69.0975 245.141 66.6692 244.921 66.5372C242.686 65.1119 239.149 65.4286 235.999 67.0211C231.486 69.2999 227.729 74.1126 224.861 82.128C224.861 82.128 221.957 80.0427 221.016 79.4884C218.684 78.2127 215.957 78.8286 212.886 80.8258C209.428 83.0782 207.07 85.9993 204.915 90.416V90.4952C203.047 94.2456 202.025 98.3605 201.923 102.549C201.923 111.814 205.715 116.231 210.651 119.548C212.059 120.498 215.781 122.495 216.15 122.741C219.129 124.708 222.423 126.149 225.89 127L230.755 128.135L235.621 121.386C239.163 116.411 242.415 111.234 245.361 105.884C250.297 96.8653 254.159 88.0317 254.089 78.8022C254.018 74.8517 252.883 71.9482 251.045 70.1885Z" fill="#006C93"/>
<path opacity="0.3" d="M251.045 70.1885C250.812 69.9872 250.562 69.8075 250.297 69.6518C249.364 69.0975 245.141 66.6692 244.921 66.5372C242.686 65.1119 239.149 65.4286 235.999 67.0211C231.486 69.2999 227.729 74.1126 224.861 82.128C224.861 82.128 221.957 80.0427 221.016 79.4884C218.684 78.2127 215.957 78.8286 212.886 80.8258C209.428 83.0782 207.07 85.9993 204.915 90.416V90.4952C203.047 94.2456 202.025 98.3605 201.923 102.549C201.923 111.814 205.715 116.231 210.651 119.548C212.059 120.498 215.781 122.495 216.15 122.741C219.129 124.708 222.423 126.149 225.89 127L230.755 128.135L235.621 121.386C239.163 116.411 242.415 111.234 245.361 105.884C250.297 96.8653 254.159 88.0317 254.089 78.8022C254.018 74.8517 252.883 71.9482 251.045 70.1885Z" fill="black"/>
<path d="M251.044 70.1885C250.812 69.9872 250.562 69.8075 250.296 69.6518C249.364 69.0975 245.141 66.6692 244.921 66.5372C242.686 65.1119 239.149 65.4286 235.999 67.0211C231.485 69.2999 227.729 74.1126 224.86 82.128C224.86 82.128 221.957 80.0427 221.015 79.4884C218.684 78.2127 215.956 78.8286 212.886 80.8258C209.428 83.0782 207.07 85.9992 204.914 90.416V90.4952C204.818 90.6888 204.738 90.8824 204.65 91.0759L241.604 112.386C242.915 110.256 244.19 108.101 245.405 105.884C250.34 96.8653 254.203 88.0317 254.133 78.8022C254.018 74.8517 252.883 71.9482 251.044 70.1885Z" fill="#006C93"/>
<path opacity="0.15" d="M251.044 70.1885C250.812 69.9872 250.562 69.8075 250.296 69.6518C249.364 69.0975 245.141 66.6692 244.921 66.5372C242.686 65.1119 239.149 65.4286 235.999 67.0211C231.485 69.2999 227.729 74.1126 224.86 82.128C224.86 82.128 221.957 80.0427 221.015 79.4884C218.684 78.2127 215.956 78.8286 212.886 80.8258C209.428 83.0782 207.07 85.9992 204.914 90.416V90.4952C204.818 90.6888 204.738 90.8824 204.65 91.0759L241.604 112.386C242.915 110.256 244.19 108.101 245.405 105.884C250.34 96.8653 254.203 88.0317 254.133 78.8022C254.018 74.8517 252.883 71.9482 251.044 70.1885Z" fill="black"/>
<path d="M224.834 82.0928L229.779 88.542L237.75 79.1101L228.741 73.9103C227.136 76.4828 225.826 79.2276 224.834 82.0928Z" fill="#006C93"/>
<path opacity="0.3" d="M224.834 82.0928L229.779 88.542L237.75 79.1101L228.741 73.9103C227.136 76.4828 225.826 79.2276 224.834 82.0928Z" fill="black"/>
<path d="M251.045 70.1885C248.889 68.2616 244.965 68.4288 241.498 70.1885C236.774 72.5816 232.867 77.7463 229.946 86.4919C227.025 81.1249 223.118 80.9577 218.394 84.0283C214.927 86.2807 212.569 89.2018 210.422 93.6186L210.378 93.6978C208.517 97.4533 207.499 101.57 207.396 105.76C207.396 115.025 211.197 119.442 216.124 122.759C219.103 124.726 222.397 126.166 225.864 127.017L230.729 128.152L235.595 121.404C239.137 116.428 242.389 111.252 245.334 105.901C250.27 96.8828 254.133 88.0492 254.062 78.8197C254.018 74.8516 252.883 71.9481 251.045 70.1885Z" fill="#006C93"/>
<g opacity="0.07">
<path d="M246.892 69.3087C248.248 69.2467 249.581 69.6745 250.648 70.5141C250.667 70.5521 250.694 70.5852 250.728 70.6109C252.54 72.265 253.552 75.2036 253.561 78.8638C253.561 88.498 249.162 97.8507 244.894 105.716C241.971 111.05 238.739 116.209 235.216 121.166L230.544 127.668L225.995 126.604C222.58 125.765 219.334 124.349 216.396 122.416C211.997 119.424 207.844 115.377 207.879 105.804C207.973 101.688 208.961 97.641 210.774 93.9442V93.865C212.939 89.4218 215.27 86.6152 218.578 84.4683C220.115 83.3286 221.948 82.6565 223.857 82.5327C226.092 82.5327 227.931 83.9141 229.48 86.7559C229.518 86.832 229.577 86.8956 229.65 86.9393C229.724 86.9829 229.808 87.0047 229.893 87.0023H229.937C230.028 86.9939 230.114 86.9595 230.186 86.9034C230.258 86.8472 230.312 86.7716 230.342 86.6855C233.131 78.3359 236.835 73.092 241.656 70.6549C243.266 69.8116 245.049 69.351 246.865 69.3087M246.865 68.8424C244.975 68.8814 243.12 69.3572 241.445 70.2326C236.721 72.6257 232.814 77.7904 229.893 86.536C228.204 83.4213 226.18 82.0576 223.857 82.0576C221.864 82.1887 219.95 82.8878 218.341 84.0724C214.874 86.3248 212.516 89.2459 210.369 93.6627L210.325 93.7419C208.464 97.4974 207.446 101.614 207.343 105.804C207.343 115.069 211.144 119.486 216.071 122.803C219.05 124.77 222.344 126.21 225.811 127.061L230.676 128.196L235.542 121.448C239.084 116.472 242.336 111.296 245.281 105.945C250.217 96.9269 254.08 88.0933 254.009 78.8638C254.009 74.8957 252.857 71.9482 251.018 70.2589C249.857 69.313 248.388 68.8275 246.892 68.8952L246.865 68.8424Z" fill="black"/>
</g>
<path d="M250.508 95.132L241.041 100.605L237.521 87.8029C237.471 87.6093 237.357 87.4385 237.197 87.3185C237.037 87.1986 236.841 87.1367 236.641 87.143C236.436 87.1389 236.235 87.207 236.074 87.3356C235.913 87.4642 235.803 87.6452 235.762 87.8469L230.28 112.887L225.67 100.27C225.66 100.037 225.559 99.8168 225.387 99.6584C225.216 99.5 224.988 99.4162 224.755 99.4256C224.521 99.4349 224.301 99.5366 224.143 99.7082C223.985 99.8798 223.901 100.107 223.91 100.341L220.795 111.4L210.378 117.418C210.721 117.916 211.091 118.395 211.487 118.852L222.045 112.773C222.249 112.654 222.4 112.462 222.467 112.236L224.922 103.508L229.647 116.406C229.709 116.587 229.829 116.742 229.988 116.848C230.147 116.955 230.336 117.007 230.526 116.996C230.722 116.986 230.908 116.912 231.056 116.784C231.204 116.657 231.306 116.484 231.345 116.292L236.712 91.815L239.545 102.206C239.578 102.34 239.643 102.463 239.733 102.568C239.824 102.672 239.937 102.753 240.065 102.805C240.192 102.858 240.33 102.879 240.468 102.868C240.605 102.857 240.738 102.814 240.856 102.743L249.267 97.8947C249.751 96.9708 250.138 96.0558 250.508 95.132Z" fill="white"/>
<path d="M290.241 330.436C289.881 331.629 289.85 332.897 290.153 334.105C290.505 334.844 292.705 337.272 297.192 338.152C301.679 339.032 307.847 338.152 310.504 337.994C313.161 337.835 321.502 338.874 324.15 339.208C328.321 339.771 331.523 338.856 333.081 337.352C333.333 337.049 333.519 336.697 333.626 336.318C333.734 335.939 333.761 335.542 333.705 335.152C333.696 334.148 333.548 333.15 333.265 332.187L290.241 330.436Z" fill="#263238"/>
<path d="M332.579 327.823C332.658 328.166 332.738 328.518 332.808 328.87C333.214 330.64 333.342 332.463 333.186 334.272C332.65 335.592 331.18 336.322 329.992 336.692C326.851 337.695 324.467 337.572 320.992 336.876C317.496 336.367 313.965 336.149 310.434 336.225C307.697 336.41 303.932 336.938 301.195 336.683C298.869 336.586 296.572 336.117 294.394 335.293C292.573 334.519 290.708 333.533 290.259 331.633C289.722 327.673 291.385 325.931 293.259 324.823C295.133 323.714 297.799 323.802 300.65 323.617C303.228 323.441 305.111 323.441 307.407 323.265C309.392 323.169 311.365 322.895 313.302 322.447C315.062 321.902 316.821 319.693 317.543 319.614C317.543 319.614 329.025 319.526 330.116 319.614C331.383 319.72 331.77 323.644 331.928 324.497C332.051 325.166 332.078 325.887 332.254 326.53C332.368 326.961 332.474 327.392 332.579 327.823Z" fill="#37474F"/>
<path d="M297.201 336.155C296.84 333.304 296.321 327.128 301.6 323.556H302.26C299.889 322.87 297.372 322.87 295.001 323.556C290.804 324.673 288.939 328.069 289.986 331.659C290.004 331.624 290.936 335.099 297.201 336.155Z" fill="#FAFAFA"/>
<path d="M312.519 322.65C310.821 324.154 310.231 327.577 310.231 327.577C310.011 328.861 307.689 329.055 307.908 327.814C308.263 326.109 308.948 324.489 309.923 323.045C310.719 322.625 311.634 322.486 312.519 322.65Z" fill="#FAFAFA"/>
<path d="M307.759 323.239C306.478 324.493 305.641 326.13 305.374 327.902C305.137 329.134 303.201 329.116 303.342 327.902C303.342 327.902 303.562 324.867 305.374 323.45C305.725 323.226 306.126 323.089 306.541 323.052C306.956 323.015 307.374 323.08 307.759 323.239Z" fill="#FAFAFA"/>
<path d="M330.468 311.264C330.468 311.264 330.16 318.646 329.755 321.066C329.509 322.509 327.617 324.022 322.91 323.864C319.602 323.749 316.997 324.022 317.129 321.435L317.42 313.895L330.468 311.264Z" fill="#FFA8A7"/>
<path d="M337.849 293.826C337.682 295.841 337.41 297.662 338.237 299.879C339.416 303.064 341.914 304.525 343.384 305.774C344.929 307.306 346.356 308.953 347.651 310.701C349.094 312.461 349.472 313.508 351.637 315.426C352.715 316.256 353.991 316.793 355.339 316.982C356.686 317.172 358.061 317.009 359.326 316.508C361.2 315.708 361.852 315.074 361.737 312.197C361.623 309.32 352.455 308.343 352.455 308.343L337.849 293.826Z" fill="#263238"/>
<path d="M360.549 303.627C361.332 303.909 361.526 305.326 361.649 308.141C361.737 310.27 362.679 313.42 359.59 314.731C357.1 315.813 353.124 315.092 351.443 313.086C349.349 310.578 347.924 308.37 344.932 305.317C342.293 302.677 339.653 301.797 338.483 296.474C337.735 293.061 338.325 291.653 340.735 290.676C344.052 289.33 349.252 293.72 351.857 294.415C354.091 295.005 359.766 303.346 360.549 303.627Z" fill="#37474F"/>
<path d="M351.856 294.415L351.417 294.266C349.933 294.321 348.49 294.764 347.231 295.549C345.971 296.335 344.939 297.436 344.237 298.744C343.797 299.668 345.117 300.39 345.997 299.668C347.844 296.149 351.645 295.392 353.167 295.225C352.793 294.865 352.346 294.589 351.856 294.415Z" fill="#FAFAFA"/>
<path d="M353.994 296.017C352.602 296.147 351.263 296.622 350.099 297.397C348.935 298.173 347.982 299.225 347.325 300.46C346.885 301.34 348.249 302.105 349.085 301.34C349.713 300.239 350.574 299.288 351.607 298.554C352.64 297.82 353.821 297.321 355.068 297.09C354.69 296.738 354.338 296.36 353.994 296.017Z" fill="#FAFAFA"/>
<path d="M360.998 298.542L360.549 304.481C360.549 304.481 356.775 307.235 351.364 304.71C351.205 304.384 350.748 299.07 350.748 299.07L360.998 298.542Z" fill="#FFA8A7"/>
<path d="M340.005 300.39C340.005 300.39 340.26 294.081 349.226 293.21L349.745 293.483C348.725 291.901 347.159 290.749 345.346 290.245C342.372 289.48 340.014 290.245 338.448 292.128C336.882 294.011 338.456 299.167 340.005 300.39Z" fill="#FAFAFA"/>
<path d="M363.611 258.984C362.327 248.594 361.851 242.804 361.851 242.804C361.851 242.804 361.596 228.172 362.485 214.649C362.872 208.719 363.074 202.156 363.198 196.173C363.362 189.584 362.837 182.997 361.631 176.517C361.631 176.517 315.625 167.367 315.053 184.242C314.358 204.478 314.446 239.065 313.663 252.271C313.231 259.688 313.979 265.838 314.446 280.25C314.824 292.198 314.71 321.603 314.71 321.603C319.777 328.562 331.743 323.257 331.743 323.257C331.743 323.257 335.439 281.966 335.984 273.431C336.565 264.255 335.597 259.609 335.597 259.609L340.339 216.858C340.339 216.858 340.7 230.574 341.105 237.974C341.51 245.373 342.592 249.922 344.519 263.727C346.19 275.71 349.745 306.293 349.745 306.293C355.904 309.936 361.851 306.293 361.851 306.293C361.851 306.293 364.896 269.375 363.611 258.984Z" fill="#455A64"/>
<path d="M357.329 199.938C357.329 199.938 351.566 207.294 344.131 210.452C344.131 210.452 340.911 236.311 340.938 235.801L340.102 209.775C340.102 209.775 351.17 204.883 357.329 199.938Z" fill="#37474F"/>
<path d="M357.171 116.82C362.124 115.711 367.729 119.248 371.459 127.141C375.067 134.69 384.921 153.756 385.158 159.096C385.414 164.63 360.796 181.418 361.403 181.092C361.596 180.995 357.153 168.396 357.153 168.396L369.11 158.498L362.608 145.107L357.171 116.82Z" fill="#FFA8A7"/>
<path d="M354.566 115.632C358.737 115.122 366.295 116.697 369.181 121.712C373.369 128.971 377.187 137.364 382.053 148.213C382.053 148.213 378.445 156.026 368.063 156.765L361.843 145.855L354.566 115.632Z" fill="#37474F"/>
<path d="M333.573 109.095L334.295 124.492L349.551 123.674L349.085 105.787L333.573 109.095Z" fill="#FFA8A7"/>
<path d="M364.535 123.384C363.25 119.187 358.816 115.729 353.211 115.562C351.962 115.562 349.34 115.562 349.34 115.562C348.707 118.157 340.762 119.081 333.969 117.524C331.919 118.069 323.411 120.163 321.652 120.691C316.769 122.31 315.264 127.29 314.507 143.215C314.507 143.215 314.657 174.608 314.507 189.591C323.095 194.123 336.363 193.56 345.803 192.6C360.637 191.105 362.846 185.729 362.846 185.729C362.221 176.992 362.599 173.702 362.846 165.079C363.03 158.595 364.896 151.741 365.485 144.394C366.356 133.475 365.406 126.269 364.535 123.384Z" fill="#006C93"/>
<path d="M331.189 112.016C327.67 111.77 323.27 114.576 322.135 120.586L325.004 119.82L331.189 112.016Z" fill="#006C93"/>
<path opacity="0.3" d="M331.189 112.016C327.67 111.77 323.27 114.576 322.135 120.586L325.004 119.82L331.189 112.016Z" fill="black"/>
<path d="M333.767 113.301C336.407 114.18 344.105 114.057 346.683 113.301C349.261 112.544 349.235 111.4 349.235 111.4V110.107C350.721 110.103 352.174 110.554 353.396 111.4C355.042 112.738 357.875 117.559 357.795 119.873C357.716 122.187 352.772 128.293 343.234 128.144C333.697 127.994 328.338 124.466 326.693 122.143L325.039 119.811C325.039 119.811 327.3 115.166 329.526 113.213C330.668 112.106 332.131 111.392 333.705 111.171L333.767 113.301Z" fill="#006C93"/>
<path opacity="0.2" d="M333.767 113.301C336.407 114.18 344.105 114.057 346.683 113.301C349.261 112.544 349.235 111.4 349.235 111.4V110.107C350.721 110.103 352.174 110.554 353.396 111.4C355.042 112.738 357.875 117.559 357.795 119.873C357.716 122.187 352.772 128.293 343.234 128.144C333.697 127.994 328.338 124.466 326.693 122.143L325.039 119.811C325.039 119.811 327.3 115.166 329.526 113.213C330.668 112.106 332.131 111.392 333.705 111.171L333.767 113.301Z" fill="black"/>
<path d="M323.306 90.2136C323.306 90.2136 319.672 95.7302 320.086 96.2669C320.499 96.8036 323.174 97.3051 323.174 97.3051L323.306 90.2136Z" fill="#F28F8F"/>
<path d="M333.406 74.9396C326.051 76.4969 323.112 78.6526 322.655 91.2255C322.215 103.455 323.754 107.485 325.356 109.13C326.438 110.239 332.465 110.441 335.5 109.596C339.301 108.549 347.897 105.505 351.918 99.364C356.652 92.1317 357.892 82.3303 352.798 78.3094C345.698 72.6521 336.406 74.3061 333.406 74.9396Z" fill="#FFA8A7"/>
<path d="M325.356 109.121C326.236 110.001 330.45 110.335 333.617 109.948L333.573 108.127C330.949 109.095 328.135 109.436 325.356 109.121Z" fill="#F28F8F"/>
<path d="M321.678 79.6644C323.51 80.9781 325.783 81.5243 328.013 81.1865C327.969 82.1723 328.233 83.1473 328.769 83.9756C329.516 85.1051 330.648 85.9244 331.954 86.2808C331.149 87.8592 330.721 89.6031 330.705 91.3751C330.655 91.9312 330.775 92.4893 331.048 92.9764C331.133 93.1533 331.265 93.3028 331.431 93.4074C331.597 93.512 331.789 93.5675 331.985 93.5675C332.181 93.5675 332.373 93.512 332.539 93.4074C332.705 93.3028 332.838 93.1533 332.922 92.9764C333.336 92.0403 333.856 91.1547 334.471 90.3368C335.268 89.3824 336.39 88.7559 337.621 88.5772C342.24 88.0756 342.82 94.1201 340.973 96.6277C337.946 100.728 335.377 97.9474 335.377 97.9474C335.259 99.8694 335.551 101.794 336.234 103.595C336.916 105.396 337.974 107.03 339.336 108.391C342.62 109.359 346.1 109.447 349.428 108.646C353.528 103.007 356.106 100.261 358.297 95.3959C362.925 85.093 360.69 78.6262 357.109 75.8987C356.405 71.1563 352.666 69.0271 348.399 68.0505C342.029 66.5812 336.081 70.3645 329.764 68.9304C328.727 68.7133 327.702 68.4432 326.693 68.1209C326.304 67.9387 325.861 67.9104 325.452 68.0417C325.226 68.1922 325.049 68.4057 324.942 68.6559C324.836 68.9061 324.805 69.182 324.854 69.4495C324.933 70.6636 326.165 72.0098 326.79 72.6609C325.41 72.7871 324.019 72.707 322.663 72.4233C322.192 72.3351 321.709 72.3351 321.238 72.4233C320.721 72.6338 320.284 73.0027 319.99 73.4769C319.696 73.9512 319.56 74.5064 319.601 75.0628C319.607 75.9324 319.794 76.7911 320.152 77.5837C320.51 78.3763 321.029 79.0851 321.678 79.6644Z" fill="#263238"/>
<path d="M357.223 77.4296L361.623 74.7901C361.273 74.2067 360.705 73.7863 360.045 73.6213C359.385 73.4563 358.687 73.5602 358.103 73.9102C357.52 74.2603 357.1 74.8277 356.935 75.4877C356.77 76.1477 356.873 76.8462 357.223 77.4296Z" fill="#263238"/>
<path d="M299.893 146.734C298.896 142.816 297.934 138.892 297.007 134.962C296.127 131.346 294.772 127.158 296.013 123.463C296.718 121.849 297.603 120.32 298.652 118.905C299.56 117.414 300.326 115.841 300.94 114.207C301.248 113.415 301.53 112.606 301.82 111.805C302.11 111.004 302.524 110.547 302.33 109.781C301.688 107.274 298.45 110.564 297.79 111.594C297.497 112.134 297.156 112.647 296.77 113.125C296.347 113.573 295.318 114.136 294.825 113.477C294.661 113.212 294.57 112.908 294.561 112.597C294.227 108.734 295.617 105.276 296.77 101.669C296.952 101.196 297.061 100.697 297.095 100.191C297.116 99.9382 297.082 99.6839 296.995 99.4454C296.909 99.207 296.772 98.9901 296.594 98.8096C296.307 98.5896 295.967 98.4493 295.609 98.4029C295.25 98.3566 294.886 98.4058 294.552 98.5457C293.901 98.7656 293.338 99.1791 292.687 99.3815C292.036 99.5839 291.552 99.5839 290.98 99.7335C289.623 100.036 288.317 100.531 287.1 101.203C284.989 102.443 284.056 104.256 283.502 106.561C282.836 109.392 282.61 112.31 282.833 115.21C282.983 117.137 283.326 119.037 283.563 120.938L284.355 127.299C284.892 131.54 285.05 152.726 285.78 156.941C286.511 161.155 287.918 163.979 291.253 165.378C296.092 167.349 303.914 158.445 308.357 153.835L299.893 146.734Z" fill="#FFA8A7"/>
<path d="M298.125 144.333C295.01 146.664 291.13 150.544 290.347 154.433C290.347 154.433 289.573 147.438 298.125 141.235V144.333Z" fill="#F28F8F"/>
<path d="M321.405 120.788C318.414 121.07 313.487 121.175 308.471 126.569C302.656 132.868 293.69 145.291 293.69 145.291C293.69 145.291 294.86 155.181 304.38 158.727C304.38 158.727 318.22 145.529 321.194 139.845C324.168 134.162 324.836 124.738 321.405 120.788Z" fill="#37474F"/>
<path d="M317.419 99.8831L313.636 97.8506L315.809 95.9942L307.952 92.3164L311.384 90.328L302.92 85.8232L307.952 90.2664L303.861 92.3164L313.091 96.3109L310.812 98.5897L317.419 99.8831Z" fill="#006C93"/>
<path d="M319.346 94.8943L316.883 92.5363L318.229 91.5421L316.064 88.9729L318.141 88.2691L317.419 85.0137L318.88 88.5242L317.419 89.1577L319.76 91.7268L318.176 92.853L319.346 94.8943Z" fill="#006C93"/>
<path d="M317.912 103.605L313.267 107.23L311.551 104.704L307.486 106.913L305.823 103.789L299.532 105.4L306.809 101.915L308.894 104.792L312.273 102.98L313.68 105.4L317.912 103.605Z" fill="#006C93"/>
<path d="M285.613 168.475C285.755 168.358 285.937 168.301 286.12 168.318C286.303 168.334 286.472 168.423 286.59 168.563C287.49 169.574 288.658 170.307 289.959 170.678C291.26 171.049 292.64 171.042 293.937 170.657C294.025 170.626 294.119 170.613 294.213 170.619C294.306 170.625 294.398 170.65 294.481 170.692C294.565 170.735 294.639 170.794 294.7 170.865C294.76 170.937 294.805 171.021 294.833 171.11C294.86 171.2 294.869 171.294 294.859 171.388C294.849 171.481 294.82 171.571 294.774 171.653C294.728 171.735 294.666 171.806 294.592 171.864C294.517 171.921 294.432 171.962 294.341 171.986C292.786 172.446 291.131 172.452 289.572 172.003C288.013 171.554 286.615 170.669 285.543 169.452C285.483 169.384 285.437 169.304 285.408 169.217C285.378 169.131 285.367 169.04 285.373 168.949C285.38 168.858 285.405 168.769 285.446 168.688C285.487 168.607 285.544 168.534 285.613 168.475Z" fill="#E0E0E0"/>
<path d="M286.317 173.13C286.441 173.027 286.596 172.97 286.757 172.97C286.918 172.97 287.074 173.027 287.197 173.13C287.913 173.647 288.734 174.002 289.602 174.17C290.47 174.337 291.364 174.312 292.221 174.097C292.403 174.064 292.591 174.103 292.744 174.207C292.897 174.311 293.003 174.47 293.039 174.652C293.057 174.741 293.057 174.832 293.039 174.921C293.021 175.01 292.986 175.095 292.935 175.17C292.885 175.246 292.82 175.31 292.744 175.36C292.668 175.41 292.583 175.444 292.494 175.461C291.434 175.707 290.333 175.717 289.268 175.491C288.204 175.264 287.203 174.807 286.335 174.15C286.265 174.091 286.208 174.019 286.167 173.938C286.126 173.856 286.101 173.768 286.095 173.677C286.088 173.586 286.1 173.494 286.129 173.408C286.158 173.322 286.204 173.242 286.264 173.174C286.28 173.157 286.298 173.142 286.317 173.13Z" fill="#E0E0E0"/>
<path d="M372.709 119.803C372.627 119.845 372.539 119.87 372.447 119.877C372.356 119.885 372.264 119.874 372.177 119.845C372.091 119.816 372.01 119.771 371.941 119.71C371.872 119.65 371.816 119.577 371.776 119.495C371.134 118.304 370.167 117.32 368.988 116.657C367.809 115.993 366.467 115.678 365.116 115.747C365.024 115.752 364.933 115.739 364.847 115.709C364.76 115.679 364.681 115.632 364.613 115.571C364.475 115.448 364.392 115.275 364.381 115.091C364.371 114.907 364.434 114.726 364.557 114.588C364.68 114.45 364.852 114.367 365.036 114.356C366.658 114.272 368.271 114.651 369.684 115.451C371.098 116.25 372.254 117.436 373.017 118.87C373.097 119.035 373.11 119.225 373.052 119.399C372.995 119.573 372.871 119.718 372.709 119.803Z" fill="#E0E0E0"/>
<path d="M373.096 115.139C372.949 115.217 372.778 115.238 372.616 115.199C372.454 115.161 372.312 115.064 372.216 114.928C371.648 114.265 370.944 113.731 370.151 113.364C369.359 112.996 368.497 112.804 367.623 112.799C367.532 112.796 367.442 112.774 367.359 112.736C367.276 112.698 367.202 112.644 367.14 112.577C367.077 112.51 367.029 112.431 366.997 112.346C366.966 112.26 366.951 112.169 366.955 112.078C366.958 111.986 366.979 111.897 367.018 111.814C367.056 111.731 367.11 111.656 367.177 111.594C367.244 111.532 367.322 111.483 367.408 111.452C367.494 111.42 367.585 111.405 367.676 111.409C368.761 111.42 369.831 111.668 370.809 112.136C371.788 112.604 372.653 113.281 373.342 114.119C373.441 114.268 373.478 114.449 373.446 114.625C373.413 114.801 373.313 114.957 373.166 115.06L373.096 115.139Z" fill="#E0E0E0"/>
<path d="M385.396 165.853C385.308 165.692 385.287 165.503 385.338 165.326C385.389 165.15 385.508 165.001 385.669 164.912C386.827 164.215 387.764 163.203 388.37 161.995C388.976 160.786 389.226 159.43 389.091 158.084C389.08 157.994 389.087 157.901 389.113 157.813C389.138 157.725 389.18 157.643 389.238 157.572C389.295 157.501 389.366 157.441 389.447 157.398C389.527 157.355 389.616 157.328 389.707 157.319C389.89 157.299 390.074 157.353 390.217 157.468C390.361 157.584 390.453 157.752 390.472 157.935C390.629 159.544 390.327 161.164 389.599 162.608C388.872 164.052 387.75 165.259 386.364 166.091C386.285 166.14 386.197 166.173 386.105 166.188C386.014 166.203 385.92 166.199 385.83 166.177C385.739 166.154 385.654 166.114 385.58 166.059C385.505 166.003 385.443 165.934 385.396 165.853Z" fill="#E0E0E0"/>
<path d="M390.068 166.021C389.989 165.877 389.963 165.711 389.993 165.551C390.024 165.39 390.109 165.245 390.235 165.141C390.873 164.544 391.375 163.815 391.704 163.005C392.034 162.196 392.184 161.324 392.144 160.451C392.144 160.267 392.217 160.09 392.348 159.96C392.478 159.829 392.655 159.756 392.839 159.756C393.024 159.756 393.2 159.829 393.331 159.96C393.461 160.09 393.534 160.267 393.534 160.451C393.572 161.534 393.375 162.613 392.955 163.612C392.536 164.612 391.905 165.508 391.106 166.241C391.034 166.297 390.952 166.339 390.864 166.364C390.777 166.389 390.685 166.396 390.594 166.386C390.503 166.375 390.416 166.347 390.336 166.302C390.256 166.258 390.186 166.198 390.129 166.126L390.068 166.021Z" fill="#E0E0E0"/>
<path d="M309.131 249.676C309.296 249.759 309.421 249.903 309.48 250.077C309.539 250.252 309.528 250.442 309.448 250.608C308.891 251.84 308.696 253.205 308.886 254.543C309.076 255.882 309.643 257.138 310.522 258.166C310.641 258.308 310.699 258.491 310.684 258.675C310.669 258.859 310.582 259.031 310.442 259.151C310.303 259.271 310.123 259.331 309.94 259.317C309.757 259.304 309.586 259.219 309.466 259.081C308.411 257.844 307.731 256.332 307.507 254.722C307.282 253.111 307.522 251.471 308.199 249.992C308.282 249.828 308.426 249.703 308.6 249.644C308.775 249.585 308.965 249.596 309.131 249.676Z" fill="#E0E0E0"/>
<path d="M305.19 252.183C305.34 252.254 305.46 252.376 305.528 252.528C305.596 252.68 305.607 252.851 305.559 253.01C305.375 253.865 305.377 254.749 305.567 255.603C305.757 256.457 306.13 257.259 306.659 257.955C306.763 258.106 306.803 258.292 306.772 258.473C306.741 258.654 306.64 258.815 306.492 258.923C306.341 259.029 306.155 259.071 305.973 259.039C305.792 259.008 305.63 258.906 305.524 258.756C304.872 257.886 304.417 256.884 304.193 255.82C303.968 254.756 303.978 253.656 304.222 252.597C304.249 252.508 304.293 252.426 304.352 252.355C304.411 252.284 304.484 252.226 304.566 252.183C304.648 252.141 304.737 252.115 304.829 252.107C304.921 252.1 305.014 252.111 305.102 252.139L305.19 252.183Z" fill="#E0E0E0"/>
<path d="M257.423 8.11585C257.38 7.29542 257.143 6.49692 256.732 5.78577C256.32 5.07463 255.746 4.47108 255.057 4.0246L253.138 2.9072C252.405 2.5402 251.596 2.34912 250.776 2.34912C249.956 2.34912 249.147 2.5402 248.414 2.9072L203.85 28.6601C203.161 29.1076 202.588 29.7114 202.177 30.4223C201.765 31.1333 201.528 31.9312 201.483 32.7513V55.7943C201.528 56.6143 201.766 57.412 202.178 58.1228C202.589 58.8336 203.162 59.4375 203.85 59.8856L205.777 60.9942C206.508 61.3673 207.318 61.5618 208.139 61.5618C208.96 61.5618 209.77 61.3673 210.502 60.9942L255.057 35.2501C255.746 34.8036 256.32 34.2001 256.732 33.4889C257.143 32.7778 257.38 31.9793 257.423 31.1588V8.11585Z" fill="#006C93"/>
<path opacity="0.5" d="M257.423 8.11585C257.38 7.29542 257.143 6.49692 256.732 5.78577C256.32 5.07463 255.746 4.47108 255.057 4.0246L253.138 2.9072C252.405 2.5402 251.596 2.34912 250.776 2.34912C249.956 2.34912 249.147 2.5402 248.414 2.9072L203.85 28.6601C203.161 29.1076 202.588 29.7114 202.177 30.4223C201.765 31.1333 201.528 31.9312 201.483 32.7513V55.7943C201.528 56.6143 201.766 57.412 202.178 58.1228C202.589 58.8336 203.162 59.4375 203.85 59.8856L205.777 60.9942C206.508 61.3673 207.318 61.5618 208.139 61.5618C208.96 61.5618 209.77 61.3673 210.502 60.9942L255.057 35.2501C255.746 34.8036 256.32 34.2001 256.732 33.4889C257.143 32.7778 257.38 31.9793 257.423 31.1588V8.11585Z" fill="white"/>
<path opacity="0.2" d="M201.483 55.7942C201.528 56.6142 201.766 57.4119 202.178 58.1227C202.589 58.8335 203.162 59.4374 203.85 59.8855L205.777 60.9941C206.442 61.3295 207.171 61.5201 207.916 61.5535C208.661 61.5869 209.404 61.4622 210.097 61.1876C208.979 61.61 208.135 60.9853 208.135 59.6303V36.5873C208.163 35.7635 208.403 34.9608 208.83 34.2558L202.178 30.4197C201.75 31.1242 201.511 31.9272 201.483 32.7512V55.7942Z" fill="black"/>
<path opacity="0.3" d="M257.344 7.44717C257.071 6.44415 256.156 6.11861 255.065 6.7521L210.501 32.4962C209.8 32.9265 209.224 33.5333 208.83 34.2559L202.187 30.4198C202.58 29.6995 203.153 29.0932 203.85 28.6601L248.405 2.916C249.137 2.5429 249.946 2.34839 250.767 2.34839C251.589 2.34839 252.398 2.5429 253.13 2.916L255.065 4.0246C255.657 4.41136 256.164 4.91409 256.555 5.50236C256.947 6.09064 257.215 6.75224 257.344 7.44717Z" fill="white"/>
<path d="M208.144 44.0397L201.501 40.2036L193.494 47.911C193.374 48.0322 193.283 48.1793 193.227 48.341C193.172 48.5027 193.154 48.6749 193.176 48.8444C193.197 49.014 193.256 49.1765 193.35 49.3196C193.443 49.4628 193.568 49.5828 193.714 49.6707L200.251 53.4716C200.522 53.6132 200.827 53.6772 201.131 53.6564L208.17 52.3102V44.0397H208.144Z" fill="#006C93"/>
<path opacity="0.5" d="M208.144 44.0397L201.501 40.2036L193.494 47.911C193.374 48.0322 193.283 48.1793 193.227 48.341C193.172 48.5027 193.154 48.6749 193.176 48.8444C193.197 49.014 193.256 49.1765 193.35 49.3196C193.443 49.4628 193.568 49.5828 193.714 49.6707L200.251 53.4716C200.522 53.6132 200.827 53.6772 201.131 53.6564L208.17 52.3102V44.0397H208.144Z" fill="white"/>
<path opacity="0.3" d="M200.251 53.4715L196.732 51.4566L196.319 51.1839L194.436 50.0929L194.207 49.9521L193.705 49.6618C193.559 49.5739 193.434 49.4539 193.341 49.3107C193.248 49.1676 193.188 49.005 193.167 48.8355C193.146 48.6659 193.163 48.4938 193.219 48.3321C193.274 48.1704 193.365 48.0233 193.485 47.9021L201.492 40.1947L208.144 44.0396L200.137 51.7118C200.01 51.8248 199.91 51.9653 199.846 52.1226C199.781 52.2799 199.753 52.4499 199.764 52.6196C199.775 52.7893 199.825 52.9543 199.909 53.1019C199.994 53.2495 200.111 53.3759 200.251 53.4715Z" fill="white"/>
<path d="M221.156 36.957C220.237 37.5549 219.472 38.3614 218.923 39.3108C218.374 40.2602 218.057 41.3258 217.998 42.4208C217.998 44.4268 219.414 45.2451 221.156 44.2421C222.075 43.6437 222.838 42.8369 223.386 41.8874C223.933 40.938 224.248 39.8727 224.306 38.7783C224.306 36.7546 222.899 35.954 221.156 36.957Z" fill="white"/>
<path d="M232.779 30.235C231.861 30.8334 231.097 31.6402 230.55 32.5897C230.002 33.5391 229.687 34.6044 229.629 35.6988C229.629 37.7049 231.037 38.5231 232.779 37.5113C233.696 36.9138 234.459 36.1084 235.006 35.1606C235.554 34.2127 235.87 33.1492 235.929 32.0563C235.911 30.0415 234.521 29.2232 232.779 30.235Z" fill="white"/>
<path d="M244.402 23.5041C243.485 24.1041 242.722 24.9112 242.175 25.8603C241.628 26.8095 241.312 27.874 241.252 28.9679C241.252 30.9827 242.66 31.7922 244.402 30.7892C245.322 30.1904 246.088 29.3825 246.637 28.4315C247.186 27.4804 247.502 26.4131 247.56 25.3166C247.56 23.3193 246.144 22.5011 244.402 23.5041Z" fill="white"/>
<path d="M343.199 53.2869L340.005 47.3128L342.574 39.8957V35.3293L334.708 39.8693V44.4093L338.087 50.269C338.143 50.3566 338.222 50.4267 338.316 50.4714L343.199 53.2869Z" fill="#006C93"/>
<path opacity="0.2" d="M343.199 53.2869L340.005 47.3128L342.574 39.8957V35.3293L334.708 39.8693V44.4093L338.087 50.269C338.143 50.3566 338.222 50.4267 338.316 50.4714L343.199 53.2869Z" fill="black"/>
<path d="M367.087 5.76675C367.043 4.94863 366.807 4.15239 366.397 3.44294C365.987 2.73349 365.415 2.1309 364.729 1.6843L362.811 0.575702C362.08 0.202679 361.272 0.00817871 360.453 0.00817871C359.633 0.00817871 358.825 0.202679 358.095 0.575702L313.636 26.2582C312.953 26.7103 312.384 27.3154 311.974 28.0255C311.565 28.7356 311.327 29.5313 311.278 30.3495V53.3396C311.322 54.1578 311.558 54.954 311.968 55.6635C312.378 56.3729 312.949 56.9755 313.636 57.4221L315.554 58.5307C316.287 58.8963 317.094 59.0866 317.912 59.0866C318.731 59.0866 319.538 58.8963 320.27 58.5307L339.627 47.2688L343.005 53.1109C343.054 53.189 343.124 53.252 343.206 53.2926C343.289 53.3332 343.381 53.3499 343.473 53.3408C343.564 53.3316 343.651 53.297 343.724 53.2408C343.797 53.1846 343.853 53.1091 343.885 53.0229L347.457 42.7376L364.685 32.8394C365.371 32.3928 365.943 31.7902 366.353 31.0808C366.763 30.3713 366.999 29.5751 367.043 28.757L367.087 5.76675Z" fill="#006C93"/>
<path d="M324.599 34.8014L360.144 14.2748C361.2 13.6677 362.054 14.0988 362.054 15.2426C362.006 15.882 361.808 16.5012 361.476 17.05C361.145 17.5987 360.688 18.0616 360.144 18.4012L324.599 38.9278C323.552 39.5349 322.698 39.1038 322.698 37.96C322.746 37.3215 322.943 36.7031 323.273 36.1545C323.603 35.6059 324.057 35.1425 324.599 34.8014Z" fill="white"/>
<path d="M324.599 43.9429L360.144 23.425C361.2 22.8179 362.054 23.2491 362.054 24.3841C362.007 25.025 361.81 25.646 361.478 26.1964C361.147 26.7468 360.69 27.2111 360.144 27.5515L324.599 48.0693C323.552 48.6852 322.698 48.2453 322.698 47.1103C322.745 46.4703 322.941 45.8501 323.271 45.2999C323.601 44.7497 324.056 44.2848 324.599 43.9429Z" fill="white"/>
<path opacity="0.2" d="M311.278 53.3396C311.322 54.1577 311.558 54.954 311.968 55.6634C312.378 56.3729 312.949 56.9754 313.636 57.422L315.554 58.5306C316.219 58.8648 316.946 59.0547 317.689 59.0881C318.432 59.1215 319.174 58.9974 319.866 58.7242C318.757 59.1377 317.912 58.513 317.912 57.1669V34.1767C317.94 33.3568 318.177 32.5575 318.599 31.8539L311.965 28.0178C311.543 28.7246 311.307 29.5267 311.278 30.3494V53.3396Z" fill="black"/>
<path opacity="0.2" d="M367.007 5.08045C366.734 4.07743 365.819 3.76069 364.728 4.38538L320.27 30.0767C319.57 30.5063 318.996 31.1134 318.607 31.8364L311.973 28.0091C312.368 27.2899 312.94 26.684 313.636 26.2494L358.085 0.558079C358.819 0.191077 359.628 0 360.448 0C361.268 0 362.077 0.191077 362.81 0.558079L364.728 1.66667C365.321 2.05053 365.828 2.55132 366.22 3.13834C366.612 3.72536 366.88 4.38624 367.007 5.08045Z" fill="white"/>
</svg>
