<svg width="149" height="155" viewBox="0 0 149 155" fill="none" xmlns="http://www.w3.org/2000/svg">
<g style="mix-blend-mode:multiply" opacity="0.3">
<path d="M23.7381 86.9852C23.7386 85.1929 23.0461 83.4698 21.8055 82.1763C20.5649 80.8827 18.8722 80.119 17.0814 80.0446V79.9706H20.6854C20.5522 79.0327 20.085 78.1744 19.3696 77.5534C18.6542 76.9325 17.7387 76.5906 16.7914 76.5906C15.8441 76.5906 14.9286 76.9325 14.2132 77.5534C13.4978 78.1744 13.0306 79.0327 12.8974 79.9706H16.5055V80.0446C15.0294 80.1046 13.611 80.6336 12.4562 81.5549C11.3014 82.4762 10.4705 83.7418 10.0842 85.1676C9.69796 86.5935 9.77642 88.1054 10.3082 89.4836C10.84 90.8618 11.7975 92.0345 13.0414 92.8313L12.1239 95.5508C12.1039 95.6102 12.0958 95.673 12.1001 95.7356C12.1043 95.7981 12.1209 95.8592 12.1488 95.9154C12.1767 95.9716 12.2153 96.0217 12.2626 96.0629C12.3099 96.1041 12.3648 96.1356 12.4243 96.1555C12.4734 96.1718 12.5248 96.1801 12.5765 96.1802C12.6728 96.1787 12.7665 96.1485 12.8456 96.0936C12.9247 96.0386 12.9857 95.9614 13.0208 95.8717L13.8807 93.3127C14.772 93.7237 15.7404 93.941 16.7219 93.9502C17.7034 93.9595 18.6757 93.7604 19.5746 93.3662L20.3974 95.8717C20.4132 95.9358 20.4421 95.996 20.4824 96.0484C20.5226 96.1009 20.5733 96.1444 20.6312 96.1761C20.6892 96.2079 20.7531 96.2274 20.8189 96.2332C20.8847 96.239 20.951 96.2311 21.0137 96.2099C21.0763 96.1888 21.1338 96.1548 21.1826 96.1103C21.2314 96.0657 21.2704 96.0115 21.2972 95.9511C21.324 95.8907 21.3379 95.8254 21.3381 95.7593C21.3383 95.6932 21.3248 95.6278 21.2984 95.5672L20.4262 92.9013C21.4378 92.2804 22.2734 91.4106 22.8532 90.3749C23.433 89.3391 23.7377 88.1721 23.7381 86.9852ZM16.7935 92.5145C15.7 92.5137 14.6314 92.1887 13.7226 91.5807C12.8139 90.9726 12.1058 90.1088 11.6879 89.0983C11.27 88.0879 11.1611 86.9762 11.3749 85.9039C11.5888 84.8316 12.1157 83.8467 12.8892 83.0738C13.6626 82.301 14.6479 81.7748 15.7204 81.5617C16.7928 81.3487 17.9044 81.4584 18.9145 81.8771C19.9246 82.2957 20.788 83.0044 21.3954 83.9136C22.0028 84.8228 22.327 85.8917 22.327 86.9852C22.3248 88.4517 21.741 89.8575 20.7036 90.8941C19.6662 91.9307 18.26 92.5135 16.7935 92.5145Z" fill="#263238"/>
<path d="M16.7935 86.3434H16.7688L14.9256 83.4265C14.9049 83.3886 14.8766 83.3553 14.8425 83.3287C14.8083 83.3021 14.7691 83.2827 14.7273 83.2719C14.6854 83.261 14.6417 83.2588 14.599 83.2655C14.5562 83.2721 14.5153 83.2875 14.4787 83.3106C14.4421 83.3336 14.4106 83.364 14.3862 83.3997C14.3618 83.4354 14.3449 83.4757 14.3367 83.5182C14.3285 83.5607 14.329 83.6044 14.3383 83.6466C14.3476 83.6889 14.3655 83.7288 14.3908 83.7639L16.2298 86.6808C16.1804 86.7733 16.1536 86.8762 16.1517 86.9811C16.1521 87.0941 16.1825 87.205 16.2395 87.3025C16.2966 87.4 16.3784 87.4807 16.4767 87.5365V89.968C16.4856 90.0463 16.523 90.1186 16.5818 90.1711C16.6406 90.2236 16.7167 90.2526 16.7955 90.2526C16.8743 90.2526 16.9504 90.2236 17.0092 90.1711C17.068 90.1186 17.1055 90.0463 17.1144 89.968V87.5365C17.2365 87.4658 17.3319 87.3568 17.3859 87.2263C17.4398 87.0959 17.4492 86.9513 17.4127 86.815C17.3761 86.6786 17.2957 86.5581 17.1837 86.4721C17.0718 86.3862 16.9346 86.3395 16.7935 86.3393V86.3434Z" fill="#263238"/>
<path d="M19.9022 99.8153C27.1554 98.1727 31.7036 90.9614 30.0611 83.7082C28.4185 76.4551 21.2072 71.9068 13.954 73.5493C6.70088 75.1919 2.1526 82.4033 3.79514 89.6564C5.43769 96.9096 12.6491 101.458 19.9022 99.8153Z" stroke="#92E3A9" stroke-width="2" stroke-linecap="round" stroke-linejoin="round"/>
<path d="M134.161 83.9409V79.7938C134.133 79.524 134 79.2761 133.791 79.1037C133.581 78.9312 133.312 78.8481 133.042 78.8723H125.962C125.692 78.8481 125.423 78.9312 125.213 79.1037C125.004 79.2761 124.871 79.524 124.843 79.7938V83.9409C124.851 84.1219 124.912 84.2965 125.019 84.4428C125.126 84.5892 125.273 84.7008 125.443 84.7637C125.273 84.8257 125.125 84.937 125.018 85.0836C124.911 85.2301 124.85 85.4052 124.843 85.5865V87.9233C124.857 88.1313 124.94 88.3287 125.077 88.4855C125.215 88.6423 125.4 88.7497 125.604 88.7914C125.168 89.3039 124.901 89.9394 124.843 90.6099V96.0899C124.872 96.3589 125.005 96.6058 125.215 96.7774C125.424 96.949 125.692 97.0315 125.962 97.0073H133.042C133.312 97.0315 133.58 96.949 133.789 96.7774C133.999 96.6058 134.132 96.3589 134.161 96.0899V90.5811C134.102 89.9106 133.836 89.2751 133.4 88.7626C133.604 88.7209 133.789 88.6135 133.927 88.4567C134.064 88.2999 134.147 88.1025 134.161 87.8945V85.5577C134.154 85.3764 134.093 85.2013 133.986 85.0548C133.879 84.9082 133.731 84.7969 133.561 84.7349C133.726 84.674 133.871 84.5667 133.977 84.426C134.084 84.2852 134.148 84.1168 134.161 83.9409Z" fill="#263238"/>
<path d="M128.8 76.3914H130.199C130.281 76.3914 130.363 76.4075 130.439 76.439C130.514 76.4704 130.583 76.5165 130.641 76.5745C130.7 76.6326 130.746 76.7015 130.777 76.7774C130.808 76.8533 130.825 76.9346 130.825 77.0167V78.3579H128.175V77.0167C128.175 76.9346 128.191 76.8533 128.223 76.7774C128.254 76.7015 128.3 76.6326 128.358 76.5745C128.416 76.5165 128.485 76.4704 128.561 76.439C128.637 76.4075 128.718 76.3914 128.8 76.3914Z" fill="#263238"/>
<path d="M130.533 77.7817H128.476V79.7483H130.533V77.7817Z" fill="#263238"/>
<path d="M125.382 84.3234C125.397 84.4785 125.454 84.6265 125.547 84.7518C125.64 84.8771 125.764 84.975 125.908 85.0351C125.757 85.0972 125.626 85.2016 125.532 85.3358C125.438 85.47 125.384 85.6284 125.378 85.7921V87.9808C125.385 88.1723 125.454 88.3562 125.575 88.5047C125.696 88.6532 125.862 88.7581 126.048 88.8037C125.659 89.2916 125.426 89.8849 125.378 90.5069V95.6331C125.396 95.878 125.511 96.1056 125.697 96.2666C125.882 96.4275 126.124 96.5089 126.369 96.493H132.635C132.88 96.5089 133.121 96.4275 133.307 96.2666C133.493 96.1056 133.607 95.878 133.626 95.6331V90.4946C133.578 89.8725 133.345 89.2792 132.956 88.7913C133.142 88.7458 133.308 88.6408 133.429 88.4923C133.55 88.3438 133.619 88.1599 133.626 87.9685V85.7921C133.62 85.6284 133.566 85.47 133.472 85.3358C133.378 85.2016 133.247 85.0972 133.096 85.0351C133.239 84.975 133.364 84.8771 133.457 84.7518C133.55 84.6265 133.607 84.4785 133.622 84.3234C133.622 84.3234 133.622 84.2905 133.622 84.274V81.9578C132.641 82.3231 131.621 82.5717 130.582 82.6983C128.64 82.8999 128.093 82.2252 126.381 82.2252C126.03 82.2291 125.684 82.3166 125.373 82.4803V84.274C125.373 84.274 125.373 84.3069 125.373 84.3234H125.382Z" fill="white"/>
<path d="M131.606 88.3182C131.619 88.6133 131.572 88.908 131.468 89.1845C131.364 89.4609 131.205 89.7134 131 89.9268C130.796 90.1402 130.551 90.31 130.279 90.426C130.007 90.542 129.715 90.6018 129.42 90.6018C129.124 90.6018 128.832 90.542 128.56 90.426C128.288 90.31 128.043 90.1402 127.839 89.9268C127.634 89.7134 127.475 89.4609 127.371 89.1845C127.267 88.908 127.22 88.6133 127.233 88.3182C127.233 87.1086 129.418 84.6155 129.418 84.6155C129.418 84.6155 131.606 87.1086 131.606 88.3182Z" fill="#263238"/>
<path d="M139.024 96.2071C144.283 90.9485 144.283 82.4226 139.024 77.164C133.765 71.9054 125.239 71.9054 119.981 77.164C114.722 82.4226 114.722 90.9485 119.981 96.2071C125.239 101.466 133.765 101.466 139.024 96.2071Z" stroke="#92E3A9" stroke-width="2" stroke-linecap="round" stroke-linejoin="round"/>
<path d="M26.4041 61.9096C29.3352 61.9096 31.7113 59.1872 31.7113 55.829C31.7113 52.4707 29.3352 49.7483 26.4041 49.7483C23.473 49.7483 21.0969 52.4707 21.0969 55.829C21.0969 59.1872 23.473 61.9096 26.4041 61.9096Z" fill="#263238"/>
<path d="M26.404 62.103C23.3678 62.103 20.9034 59.2889 20.9034 55.829C20.9034 52.369 23.3719 49.5549 26.404 49.5549C29.4361 49.5549 31.9046 52.369 31.9046 55.829C31.9046 59.2889 29.4361 62.103 26.404 62.103ZM26.404 49.9417C23.5817 49.9417 21.286 52.5829 21.286 55.829C21.286 59.075 23.5817 61.7245 26.404 61.7245C29.2263 61.7245 31.5343 59.075 31.5343 55.829C31.5343 52.5829 29.2222 49.9417 26.404 49.9417Z" fill="white"/>
<path d="M24.6679 61.9096C27.599 61.9096 29.9751 59.1872 29.9751 55.829C29.9751 52.4707 27.599 49.7483 24.6679 49.7483C21.7368 49.7483 19.3607 52.4707 19.3607 55.829C19.3607 59.1872 21.7368 61.9096 24.6679 61.9096Z" fill="#263238"/>
<path d="M24.6678 62.103C21.6316 62.103 19.1631 59.2889 19.1631 55.829C19.1631 52.369 21.6316 49.5549 24.6678 49.5549C27.7041 49.5549 30.1684 52.369 30.1684 55.829C30.1684 59.2889 27.7 62.103 24.6678 62.103ZM24.6678 49.9417C21.8456 49.9417 19.5499 52.5829 19.5499 55.829C19.5499 59.075 21.8456 61.7245 24.6678 61.7245C27.4901 61.7245 29.7817 59.0832 29.7817 55.8372C29.7817 52.5912 27.486 49.9417 24.6678 49.9417Z" fill="white"/>
<path d="M25.2438 56.5037H14.3373V54.7676H25.2438C25.358 54.767 25.4711 54.7891 25.5767 54.8326C25.6822 54.876 25.7781 54.9399 25.8589 55.0206C25.9396 55.1013 26.0035 55.1973 26.0469 55.3028C26.0904 55.4084 26.1125 55.5215 26.1119 55.6357C26.1119 55.7497 26.0895 55.8625 26.0458 55.9679C26.0022 56.0732 25.9383 56.1689 25.8577 56.2495C25.777 56.3301 25.6813 56.394 25.576 56.4377C25.4707 56.4813 25.3578 56.5037 25.2438 56.5037Z" fill="#263238"/>
<path d="M25.2439 56.6971H14.1358V54.5742H25.2439C25.5254 54.5742 25.7954 54.6861 25.9944 54.8851C26.1935 55.0842 26.3053 55.3542 26.3053 55.6357C26.3053 55.9172 26.1935 56.1872 25.9944 56.3862C25.7954 56.5853 25.5254 56.6971 25.2439 56.6971ZM14.5472 56.3104H25.2439C25.4228 56.3104 25.5945 56.2393 25.721 56.1128C25.8475 55.9862 25.9186 55.8146 25.9186 55.6357C25.9186 55.4567 25.8475 55.2851 25.721 55.1586C25.5945 55.032 25.4228 54.9609 25.2439 54.9609H14.5472V56.3104Z" fill="white"/>
<path d="M16.9456 61.9096C19.8767 61.9096 22.2528 59.1872 22.2528 55.829C22.2528 52.4707 19.8767 49.7483 16.9456 49.7483C14.0145 49.7483 11.6384 52.4707 11.6384 55.829C11.6384 59.1872 14.0145 61.9096 16.9456 61.9096Z" fill="#263238"/>
<path d="M16.9457 62.103C13.9095 62.103 11.441 59.2889 11.441 55.829C11.441 52.369 13.9095 49.5549 16.9457 49.5549C19.9819 49.5549 22.4463 52.369 22.4463 55.829C22.4463 59.2889 19.9778 62.103 16.9457 62.103ZM16.9457 49.9417C14.1234 49.9417 11.8277 52.5829 11.8277 55.829C11.8277 59.075 14.1234 61.7245 16.9457 61.7245C19.768 61.7245 22.0719 59.075 22.0719 55.829C22.0719 52.5829 19.7638 49.9417 16.9457 49.9417Z" fill="white"/>
<path d="M15.2054 61.9096C18.1365 61.9096 20.5126 59.1872 20.5126 55.829C20.5126 52.4707 18.1365 49.7483 15.2054 49.7483C12.2743 49.7483 9.89816 52.4707 9.89816 55.829C9.89816 59.1872 12.2743 61.9096 15.2054 61.9096Z" fill="#263238"/>
<path d="M15.2054 62.103C12.1733 62.103 9.70486 59.2889 9.70486 55.829C9.70486 52.369 12.1733 49.5549 15.2054 49.5549C18.2375 49.5549 20.7101 52.369 20.7101 55.829C20.7101 59.2889 18.2417 62.103 15.2054 62.103ZM15.2054 49.9417C12.3873 49.9417 10.0916 52.5829 10.0916 55.829C10.0916 59.075 12.3873 61.7245 15.2054 61.7245C18.0236 61.7245 20.3234 59.0832 20.3234 55.8372C20.3234 52.5912 18.0277 49.9417 15.2054 49.9417Z" fill="white"/>
<path d="M17.1349 55.8288C17.1349 57.063 16.2668 58.0463 15.1972 58.0463C14.1275 58.0463 13.2594 57.0548 13.2594 55.8288C13.2594 54.6028 14.1275 53.6072 15.1972 53.6072C16.2668 53.6072 17.1349 54.6028 17.1349 55.8288Z" fill="#263238"/>
<path d="M15.2054 58.2399C14.0329 58.2399 13.0743 57.1579 13.0743 55.8291C13.0743 54.5002 14.0329 53.4141 15.2054 53.4141C16.378 53.4141 17.3366 54.4961 17.3366 55.8291C17.3366 57.162 16.3821 58.2399 15.2054 58.2399ZM15.2054 53.8008C14.2427 53.8008 13.4611 54.71 13.4611 55.8291C13.4611 56.9481 14.2427 57.8532 15.2054 57.8532C16.1682 57.8532 16.9498 56.944 16.9498 55.8291C16.9498 54.7141 16.1682 53.8008 15.2054 53.8008Z" fill="white"/>
<path d="M16.3738 55.8288C16.3738 57.063 15.5057 58.0463 14.436 58.0463C13.3664 58.0463 12.4983 57.0548 12.4983 55.8288C12.4983 54.6028 13.3623 53.6072 14.436 53.6072C15.5098 53.6072 16.3738 54.6028 16.3738 55.8288Z" fill="#263238"/>
<path d="M14.436 58.2399C13.2594 58.2399 12.3049 57.1579 12.3049 55.8291C12.3049 54.5002 13.2594 53.4141 14.436 53.4141C15.6127 53.4141 16.5672 54.4961 16.5672 55.8291C16.5672 57.162 15.6086 58.2399 14.436 58.2399ZM14.436 53.8008C13.4733 53.8008 12.6875 54.71 12.6875 55.8291C12.6875 56.9481 13.4733 57.8532 14.436 57.8532C15.3987 57.8532 16.1804 56.944 16.1804 55.8291C16.1804 54.7141 15.3946 53.8008 14.436 53.8008Z" fill="white"/>
<path d="M33.433 60.8621C36.3901 54.0385 33.2557 46.1096 26.4321 43.1526C19.6085 40.1955 11.6796 43.3299 8.72256 50.1535C5.76548 56.9772 8.89992 64.906 15.7235 67.8631C22.5471 70.8201 30.476 67.6857 33.433 60.8621Z" stroke="#92E3A9" stroke-width="2" stroke-linecap="round" stroke-linejoin="round"/>
<path d="M135.918 49.3409C135.918 49.3409 137.469 47.4895 136.263 47.0123C135.058 46.5351 133.976 50.2501 133.976 50.2501C133.976 50.2501 134.219 48.2712 133.408 47.3702C132.598 46.4692 132.359 48.4317 132.639 50.0403C132.757 50.7531 132.951 51.4511 133.219 52.122C132.883 51.7672 132.519 51.441 132.129 51.147C129.52 49.1475 126.912 53.6155 126.912 53.6155C126.912 53.6155 120.548 58.9638 119.486 62.6665C118.425 66.3692 129.586 60.375 132.651 58.034C134.861 56.3514 134.963 54.5576 133.886 52.9366C134.976 53.0313 137.234 53.1506 137.872 52.6404C138.724 51.9575 136.395 51.6119 136.395 51.6119C136.395 51.6119 139.974 50.5175 140.431 48.8966C140.888 47.2756 135.918 49.3409 135.918 49.3409Z" fill="#263238"/>
<path d="M123.325 59.9473C123.294 59.9562 123.262 59.9579 123.23 59.9522C123.199 59.9465 123.169 59.9335 123.144 59.9144C122.916 59.751 122.652 59.6464 122.374 59.6099C122.347 59.6084 122.321 59.6014 122.297 59.5896C122.273 59.5777 122.251 59.5611 122.234 59.5408C122.216 59.5205 122.203 59.4968 122.194 59.4712C122.186 59.4457 122.183 59.4187 122.185 59.3919C122.187 59.365 122.193 59.3387 122.205 59.3146C122.217 59.2904 122.234 59.2689 122.254 59.2513C122.274 59.2336 122.298 59.2202 122.324 59.2119C122.349 59.2035 122.376 59.2004 122.403 59.2026C122.758 59.2425 123.097 59.3744 123.386 59.5852C123.429 59.6173 123.458 59.6649 123.467 59.7179C123.475 59.771 123.463 59.8252 123.432 59.8691C123.406 59.9067 123.368 59.9343 123.325 59.9473Z" fill="white"/>
<path d="M129.965 58.5729C129.912 58.5885 129.856 58.583 129.808 58.5577C129.759 58.5323 129.723 58.4891 129.706 58.4371C129.461 57.5552 129.01 56.7443 128.389 56.0715C128.36 56.0315 128.346 55.9823 128.35 55.9329C128.355 55.8835 128.376 55.8373 128.412 55.8028C128.447 55.7683 128.494 55.7477 128.544 55.745C128.593 55.7422 128.642 55.7573 128.681 55.7876C129.35 56.5034 129.837 57.3699 130.101 58.3137C130.116 58.3661 130.111 58.4225 130.085 58.4709C130.06 58.5193 130.017 58.5559 129.965 58.5729Z" fill="white"/>
<path d="M127.743 55.4463C127.717 55.4574 127.689 55.4631 127.661 55.4631C127.633 55.4631 127.605 55.4574 127.579 55.4463C127.272 55.2539 126.931 55.1226 126.575 55.0596C126.52 55.0524 126.471 55.0242 126.437 54.9812C126.403 54.9381 126.388 54.8836 126.394 54.8292C126.4 54.7752 126.427 54.726 126.47 54.6921C126.512 54.6581 126.566 54.6424 126.62 54.6481C127.035 54.7188 127.431 54.8698 127.788 55.0925C127.822 55.1132 127.848 55.143 127.865 55.1783C127.882 55.2137 127.889 55.2531 127.884 55.292C127.879 55.3309 127.863 55.3677 127.838 55.3979C127.813 55.4282 127.78 55.4506 127.743 55.4627V55.4463Z" fill="white"/>
<path d="M132.552 57.3553C132.521 57.3616 132.489 57.3616 132.458 57.3553C132.404 57.3452 132.357 57.3147 132.325 57.2702C132.294 57.2256 132.281 57.1706 132.289 57.1167C132.378 56.6595 132.328 56.1863 132.146 55.7576C131.965 55.3289 131.659 54.9641 131.269 54.7099C131.221 54.6821 131.187 54.6365 131.173 54.5833C131.159 54.5301 131.167 54.4735 131.195 54.426C131.223 54.3786 131.268 54.3441 131.321 54.3302C131.375 54.3163 131.431 54.3241 131.479 54.352C131.939 54.6516 132.302 55.08 132.521 55.584C132.741 56.0879 132.807 56.6452 132.713 57.1866C132.708 57.2281 132.689 57.2668 132.66 57.2971C132.631 57.3274 132.594 57.3478 132.552 57.3553Z" fill="white"/>
<path d="M126.756 60.1899C126.703 60.2054 126.647 60.2 126.599 60.1746C126.55 60.1492 126.514 60.106 126.497 60.0541C126.384 59.7763 126.216 59.5239 126.004 59.3119C125.792 59.0999 125.54 58.9326 125.262 58.8199C125.212 58.7988 125.172 58.7592 125.151 58.7094C125.129 58.6595 125.128 58.6032 125.147 58.5524C125.156 58.5271 125.17 58.5038 125.189 58.484C125.207 58.4642 125.229 58.4483 125.254 58.4372C125.278 58.426 125.305 58.4199 125.332 58.4193C125.359 58.4186 125.385 58.4233 125.41 58.4331C125.751 58.5681 126.059 58.7719 126.317 59.0318C126.574 59.2916 126.776 59.6018 126.908 59.943C126.919 59.9958 126.91 60.051 126.881 60.097C126.853 60.1429 126.808 60.1762 126.756 60.1899Z" fill="white"/>
<path d="M132.869 68.6108C140.113 66.9253 144.618 59.687 142.932 52.4438C141.247 45.2005 134.009 40.6951 126.765 42.3806C119.522 44.0662 115.017 51.3044 116.702 58.5477C118.388 65.791 125.626 70.2964 132.869 68.6108Z" stroke="#92E3A9" stroke-width="2" stroke-linecap="round" stroke-linejoin="round"/>
<path d="M46.5797 29.4326C46.8283 29.3622 47.0422 29.2025 47.1804 28.9842C47.6617 28.2231 47.4396 26.7913 47.1557 25.7751C46.5486 24.9325 45.7605 24.2364 44.8492 23.7381C43.938 23.2397 42.9267 22.9518 41.8896 22.8953C44.3745 23.9649 46.2095 26.454 46.5797 29.4326Z" fill="#263238"/>
<path d="M39.4705 31.7324C41.6433 32.0551 43.8587 31.9418 45.9873 31.3992C46.0183 31.1136 46.0348 30.8266 46.0366 30.5393C46.0366 30.3995 46.0366 30.2623 46.0366 30.1279H46.0161C44.4815 30.1279 43.0868 29.1652 41.614 28.1532C40.9084 27.6491 40.1779 27.1809 39.4252 26.7502C38.3331 26.1375 37.0981 25.8252 35.846 25.8451C35.0112 27.0164 34.5612 28.4181 34.5582 29.8564C35.0355 30.3378 36.3767 31.321 39.4705 31.7324Z" fill="#263238"/>
<path d="M48.069 27.499C48.1288 28.1276 47.9984 28.7597 47.6946 29.3134C47.5755 29.5009 47.4203 29.6629 47.2381 29.79C47.0559 29.9172 46.8503 30.0068 46.6332 30.0539C46.6332 30.2143 46.6332 30.3748 46.6332 30.5394C46.6332 30.7039 46.6332 30.9796 46.6085 31.1976C47.2681 30.9752 47.8918 30.6578 48.4598 30.2555C48.4598 30.1238 48.4598 29.9963 48.4598 29.8688C48.4681 29.0622 48.3358 28.2603 48.069 27.499Z" fill="#263238"/>
<path d="M46.3452 32.901C46.8023 32.8435 47.2649 32.9515 47.6494 33.2054C48.012 32.5334 48.2622 31.8066 48.3899 31.0537C47.812 31.3976 47.1963 31.6737 46.555 31.8765C46.5065 32.222 46.4364 32.5642 46.3452 32.901Z" fill="#263238"/>
<path d="M45.366 33.8225C44.9998 33.9994 44.5967 34.2339 44.1606 34.489C43.0539 35.1349 41.8032 35.8672 40.4044 36.0894C40.0857 36.1378 39.7639 36.1626 39.4417 36.1634C39.0721 36.1627 38.7033 36.131 38.3391 36.0688C39.8701 36.8592 41.6413 37.0485 43.3048 36.5995C44.2001 35.8482 44.9061 34.897 45.366 33.8225Z" fill="#263238"/>
<path d="M46.2506 33.5181L46.1354 33.5428C45.8105 34.4592 45.3273 35.3114 44.7078 36.0607C45.7632 35.5184 46.6625 34.7155 47.3203 33.7279C47.0053 33.5197 46.6209 33.4443 46.2506 33.5181Z" fill="#263238"/>
<path d="M39.705 26.2072C40.4776 26.6474 41.2273 27.1267 41.9513 27.643C43.3871 28.6304 44.6419 29.4944 45.9708 29.5067C45.5594 26.1455 43.1403 23.4549 40.0752 23.0435C38.625 23.3541 37.311 24.1177 36.3232 25.2239C37.511 25.2876 38.6682 25.624 39.705 26.2072Z" fill="#263238"/>
<path d="M40.3098 35.4844C41.5934 35.2828 42.7782 34.5793 43.8479 33.9622C44.4209 33.5975 45.027 33.2875 45.6581 33.0365C45.7565 32.7178 45.8362 32.3936 45.8967 32.0656C44.64 32.378 43.3491 32.5314 42.0542 32.5222C41.1639 32.5197 40.2747 32.4592 39.3923 32.3412C36.8292 31.9997 35.381 31.2756 34.5994 30.6956C34.7925 32.299 35.5372 33.7854 36.7058 34.9002C37.822 35.4498 39.0771 35.6533 40.3098 35.4844Z" fill="#263238"/>
<path d="M44.574 42.9851C51.8172 41.2995 56.3226 34.0613 54.6371 26.818C52.9515 19.5748 45.7133 15.0693 38.47 16.7549C31.2267 18.4405 26.7213 25.6787 28.4069 32.922C30.0924 40.1653 37.3307 44.6707 44.574 42.9851Z" stroke="#92E3A9" stroke-width="2" stroke-linecap="round" stroke-linejoin="round"/>
<path d="M115.956 30.3378C115.956 33.95 113.002 37.7844 110.172 37.7844C109.481 37.7844 107.674 37.7844 107.033 37.5375C103.527 36.184 102.174 32.8268 102.174 29.9058C102.174 28.3918 102.626 26.7379 103.82 25.7259C105.412 24.3888 107.164 25.2322 109.012 25.2322C110.62 25.2322 112.875 24.5739 114.101 25.4749C115.656 26.6186 115.956 28.5399 115.956 30.3378Z" fill="#263238"/>
<path d="M108.835 25.7218C109.111 24.8641 109.433 24.0222 109.801 23.1998C110.062 22.6817 110.47 22.2522 110.974 21.9656L111.71 22.2741C111.175 22.6293 110.698 23.065 110.295 23.566C109.786 24.3857 109.354 25.2506 109.003 26.1496" fill="#263238"/>
<path d="M109.312 24.6151C109.319 24.4293 109.283 24.2443 109.208 24.0741C109.134 23.9038 109.021 23.7526 108.88 23.6319C108.115 23.1213 107.314 22.6689 106.481 22.2783C106.481 22.2783 106.296 23.3233 106.893 23.924C107.489 24.5246 109.312 24.6151 109.312 24.6151Z" fill="#263238"/>
<path d="M114.06 27.9105C113.829 28.3219 113.126 28.3466 112.492 27.9804C111.858 27.6143 111.529 26.9889 111.764 26.5857C111.998 26.1826 112.698 26.1497 113.335 26.5158C113.973 26.882 114.294 27.5073 114.06 27.9105Z" fill="white"/>
<path d="M121.656 34.6183C124.278 27.6592 120.763 19.8918 113.804 17.2691C106.845 14.6465 99.0774 18.1618 96.4547 25.1208C93.8321 32.0798 97.3474 39.8473 104.306 42.4699C111.265 45.0926 119.033 41.5773 121.656 34.6183Z" stroke="#92E3A9" stroke-width="2" stroke-linecap="round" stroke-linejoin="round"/>
<mask id="mask0_1143_972" style="mask-type:luminance" maskUnits="userSpaceOnUse" x="66" y="7" width="24" height="24">
<path d="M78.1392 30.3748C84.4785 30.3748 89.6176 25.2357 89.6176 18.8964C89.6176 12.557 84.4785 7.41797 78.1392 7.41797C71.7998 7.41797 66.6608 12.557 66.6608 18.8964C66.6608 25.2357 71.7998 30.3748 78.1392 30.3748Z" fill="white"/>
</mask>
<g mask="url(#mask0_1143_972)">
<path d="M85.631 17.9788L85.5693 17.9459C85.5281 17.9459 81.3852 15.7078 80.4019 15.5103C79.2064 15.3831 78.003 15.3473 76.8021 15.4034H76.3495C75.7242 15.4034 75.2058 15.5309 75.14 15.6955C75.1153 15.7695 75.1811 15.9341 75.4567 16.1851C76.2796 16.9338 77.8758 17.049 78.6411 17.1066C78.8209 17.11 79 17.1307 79.1759 17.1683C79.5975 17.4298 79.9717 17.7609 80.2826 18.1475L80.5377 18.4355L69.878 19.5298C69.746 19.5369 69.6222 19.5962 69.5338 19.6946C69.4455 19.7929 69.3998 19.9224 69.4069 20.0544C69.414 20.1864 69.4733 20.3102 69.5716 20.3986C69.67 20.4869 69.7995 20.5326 69.9315 20.5255L77.954 20.402L68.9317 22.4221C68.8762 22.4341 68.8238 22.4575 68.7778 22.4908C68.7318 22.524 68.6931 22.5665 68.6643 22.6154C68.6336 22.6638 68.6134 22.7181 68.6049 22.7748C68.5964 22.8315 68.5998 22.8893 68.615 22.9446C68.6427 23.0393 68.7018 23.1218 68.7825 23.1785C68.8632 23.2353 68.9608 23.2631 69.0593 23.2572L75.8106 22.6854L75.8846 23.0721L69.8492 24.8371C69.7375 24.8745 69.6438 24.9522 69.5864 25.055C69.5289 25.1579 69.5119 25.2784 69.5387 25.3931C69.5654 25.5078 69.634 25.6084 69.731 25.6753C69.828 25.7421 69.9464 25.7704 70.0631 25.7545L75.897 24.7342L75.9998 25.1168L72.4905 26.3963C72.4586 26.4091 72.4306 26.4298 72.409 26.4564C72.3874 26.4831 72.373 26.5148 72.367 26.5485C72.3626 26.5829 72.3676 26.6179 72.3813 26.6498C72.3951 26.6816 72.4171 26.7092 72.4452 26.7296C72.4631 26.7435 72.4836 26.7537 72.5055 26.7593C72.5275 26.765 72.5504 26.7661 72.5727 26.7625C73.5478 26.6637 78.4477 26.1454 79.2664 25.9643C80.1592 25.7669 84.8164 23.8456 84.8616 23.825H84.9316L94.2912 23.6234L92.1601 16.7405H92.1395L85.631 17.9788Z" fill="#263238"/>
<path d="M71.1328 24.0593L73.0911 23.4875L73.2104 23.3105L71.4413 23.4628L71.1328 24.0593Z" fill="#263238"/>
<path d="M73.2804 23.3067L73.2351 23.4424L73.8852 23.2532L73.2804 23.3067Z" fill="#263238"/>
<path d="M70.5403 20.9204C70.384 21.159 70.2565 21.3318 70.1742 21.4676C70.0919 21.6034 70.0466 21.6774 69.9891 21.7885L74.1032 20.8669L70.5403 20.9204Z" fill="#263238"/>
<path d="M72.1202 22.0805L71.6388 23.0514L75.8188 22.6976L75.8929 23.0843L73.0829 23.9071L72.6098 25.3224L74.7491 24.948C75.3498 24.3391 75.9052 23.7138 75.9052 23.7138C75.6167 24.0809 75.3555 24.4687 75.1235 24.8739L75.9052 24.7382L76.008 25.1208L74.9548 25.5034C74.961 25.5229 74.9708 25.541 74.9836 25.5569C75.2922 25.8654 75.8065 26.1699 76.1109 25.8654C76.4153 25.561 78.8756 22.3849 79.4022 22.0763C80.6663 21.3594 81.8653 20.5335 82.9856 19.6079C83.3271 19.3158 84.0429 18.5588 84.9316 17.5837C83.6973 16.9501 81.163 15.6418 80.406 15.4937C79.2106 15.3665 78.0071 15.3307 76.8062 15.3868H76.3536C75.7283 15.3868 75.2099 15.5143 75.1441 15.6789C75.1194 15.7529 75.1852 15.9175 75.4609 16.1685C76.2837 16.9172 77.88 17.0324 78.6452 17.09C78.825 17.0934 79.0041 17.1141 79.18 17.1517C79.6017 17.4132 79.9759 17.7443 80.2867 18.1309L80.5418 18.4189L71.5771 19.3487C71.2974 19.7601 71.0341 20.1715 70.8078 20.5047L77.9623 20.3937L69.7957 22.2286C69.6691 22.5498 69.566 22.8798 69.4872 23.216L71.1575 23.0761C71.6347 22.57 72.1202 22.0805 72.1202 22.0805Z" fill="#263238"/>
<path d="M70.1743 24.2323C70.3418 23.9773 70.5333 23.739 70.7461 23.5205L69.3885 23.6357L69.3555 23.8208C69.3555 23.8208 69.9686 24.6396 70.1743 24.2323Z" fill="#263238"/>
<path d="M72.0173 15.8395C72.6939 15.6991 73.3834 15.6301 74.0744 15.6337L71.8528 18.9374L79.7149 18.1146C79.5195 17.8904 79.2921 17.6964 79.0402 17.5386C78.8958 17.5158 78.7501 17.5021 78.6041 17.4974C77.7319 17.4316 76.1068 17.3123 75.1852 16.473C75.0412 16.3455 74.6092 15.9505 74.7738 15.5473C74.9548 15.0742 75.8394 15.0043 76.3495 15.0043H76.7938C78.0292 14.9463 79.2672 14.9848 80.4966 15.1195C81.3194 15.284 84.0182 16.6705 85.2072 17.2959C88.0295 14.1691 92.3 9.1828 92.3 9.1828L85.4294 6.62793C85.1208 6.62793 81.9488 12.8691 81.9488 12.8691C81.9488 12.8691 76.4236 12.0462 75.7077 12.1532C74.9919 12.2602 71.8158 13.9963 71.0999 14.3049C70.384 14.6134 69.5653 14.9179 69.9726 15.3293C70.25 15.568 70.5794 15.7384 70.9345 15.827C71.2895 15.9156 71.6603 15.9198 72.0173 15.8395Z" fill="#263238"/>
<path d="M73.4984 26.0342L73.2105 26.1411C73.2876 26.1315 73.3627 26.1093 73.4326 26.0753L73.4984 26.0342Z" fill="#263238"/>
<path d="M73.7864 25.52L72.6057 25.7257C72.6423 25.7887 72.685 25.848 72.7332 25.9026L73.7864 25.52Z" fill="#263238"/>
<path d="M72.7414 24.0017L70.89 24.5407L70.7872 24.7423C70.8237 25.0364 70.8999 25.3242 71.0135 25.598L71.6799 25.4787C71.9844 25.1084 72.3999 24.4954 72.7414 24.0017Z" fill="#263238"/>
</g>
<path d="M74.782 12.0628C74.782 12.0628 73.3256 8.95661 72.2436 10.0057C71.0916 11.1536 74.782 12.0628 74.782 12.0628Z" fill="#263238"/>
<path d="M79.2582 12.0628C79.2582 12.0628 80.7146 8.95661 81.8007 10.0057C82.9609 11.1536 79.2582 12.0628 79.2582 12.0628Z" fill="#263238"/>
<path d="M75.4937 11.8407C75.441 11.8396 75.3907 11.8179 75.3538 11.7802C75.3169 11.7426 75.2962 11.6919 75.2962 11.6391V4.82614C75.2973 4.77409 75.3184 4.72447 75.3552 4.68767C75.392 4.65086 75.4417 4.62971 75.4937 4.62866C75.5196 4.62866 75.5453 4.63377 75.5693 4.64369C75.5932 4.65362 75.615 4.66816 75.6333 4.6865C75.6517 4.70484 75.6662 4.72661 75.6761 4.75057C75.6861 4.77453 75.6912 4.80021 75.6912 4.82614V11.6391C75.6917 11.6654 75.687 11.6915 75.6773 11.716C75.6677 11.7404 75.6532 11.7627 75.6348 11.7814C75.6164 11.8002 75.5945 11.8151 75.5702 11.8253C75.546 11.8355 75.52 11.8407 75.4937 11.8407Z" fill="#263238"/>
<path d="M76.942 14.3175C76.8896 14.3175 76.8394 14.2967 76.8023 14.2597C76.7653 14.2226 76.7445 14.1724 76.7445 14.12V12.6718C76.7445 12.6195 76.7653 12.5692 76.8023 12.5322C76.8394 12.4952 76.8896 12.4744 76.942 12.4744C76.994 12.4754 77.0436 12.4966 77.0804 12.5334C77.1172 12.5702 77.1384 12.6198 77.1394 12.6718V14.12C77.1384 14.1721 77.1172 14.2217 77.0804 14.2585C77.0436 14.2953 76.994 14.3164 76.942 14.3175Z" fill="white"/>
<path d="M76.9419 12.8733C76.9157 12.8733 76.8896 12.8681 76.8654 12.8579C76.8412 12.8477 76.8192 12.8328 76.8008 12.814C76.7824 12.7952 76.768 12.773 76.7583 12.7486C76.7486 12.7241 76.7439 12.698 76.7445 12.6717V8.96901C76.7439 8.94292 76.7486 8.91699 76.7584 8.89278C76.7681 8.86856 76.7826 8.84657 76.8011 8.82812C76.8195 8.80967 76.8415 8.79514 76.8657 8.78542C76.8899 8.77569 76.9159 8.77097 76.9419 8.77153C76.9679 8.77153 76.9936 8.77664 77.0175 8.78656C77.0415 8.79649 77.0632 8.81103 77.0816 8.82937C77.0999 8.84771 77.1145 8.86948 77.1244 8.89343C77.1343 8.91739 77.1394 8.94307 77.1394 8.96901V12.6717C77.1394 12.7245 77.1188 12.7751 77.0818 12.8128C77.0449 12.8505 76.9947 12.8722 76.9419 12.8733Z" fill="#263238"/>
<path d="M78.6946 13.6961C78.6422 13.6961 78.592 13.6752 78.555 13.6382C78.5179 13.6012 78.4971 13.5509 78.4971 13.4986V7.4179C78.4971 7.36514 78.5178 7.31448 78.5547 7.27679C78.5916 7.2391 78.6418 7.21739 78.6946 7.21631C78.7209 7.2163 78.7469 7.22154 78.7711 7.23172C78.7954 7.2419 78.8173 7.25682 78.8357 7.27559C78.8541 7.29437 78.8686 7.31663 78.8782 7.34106C78.8879 7.3655 78.8926 7.39162 78.8921 7.4179V13.5068C78.8915 13.5322 78.886 13.5572 78.8758 13.5805C78.8656 13.6037 78.8509 13.6248 78.8325 13.6423C78.8142 13.6599 78.7926 13.6737 78.7689 13.6829C78.7452 13.6921 78.72 13.6966 78.6946 13.6961Z" fill="#263238"/>
<path d="M78.6946 7.00659C78.6687 7.00659 78.643 7.00148 78.619 6.99156C78.5951 6.98163 78.5733 6.96709 78.555 6.94875C78.5366 6.93041 78.5221 6.90864 78.5121 6.88468C78.5022 6.86072 78.4971 6.83504 78.4971 6.80911V5.24163C78.4971 5.18887 78.5178 5.13821 78.5547 5.10052C78.5916 5.06283 78.6418 5.04112 78.6946 5.04004C78.7209 5.04003 78.7469 5.04527 78.7711 5.05545C78.7954 5.06563 78.8173 5.08055 78.8357 5.09933C78.8541 5.1181 78.8686 5.14036 78.8782 5.16479C78.8879 5.18923 78.8926 5.21535 78.8921 5.24163V6.78854C78.8957 6.81628 78.8932 6.84446 78.8848 6.87114C78.8764 6.89783 78.8624 6.92238 78.8436 6.94311C78.8249 6.96384 78.8018 6.98025 78.7761 6.99121C78.7504 7.00217 78.7226 7.00741 78.6946 7.00659Z" fill="#263238"/>
<path d="M73.6383 16.5966C73.2357 16.4098 72.8002 16.3045 72.3567 16.2868C71.9133 16.2692 71.4707 16.3395 71.0546 16.4938C69.6105 17.0081 70.2318 18.0407 71.1574 17.835C72.0831 17.6293 73.6383 16.5966 73.6383 16.5966Z" fill="#263238"/>
<path d="M74.1526 18.8595C74.1002 18.8595 74.05 18.8387 74.013 18.8017C73.9759 18.7646 73.9551 18.7144 73.9551 18.662V16.8025C73.9562 16.7504 73.9773 16.7008 74.0141 16.664C74.0509 16.6272 74.1005 16.606 74.1526 16.605C74.205 16.605 74.2552 16.6258 74.2922 16.6628C74.3293 16.6999 74.3501 16.7501 74.3501 16.8025V18.662C74.3506 18.6881 74.3459 18.7141 74.3362 18.7383C74.3265 18.7625 74.3119 18.7845 74.2935 18.8029C74.275 18.8214 74.253 18.8359 74.2288 18.8456C74.2046 18.8554 74.1787 18.8601 74.1526 18.8595Z" fill="white"/>
<path d="M87.0643 28.5648C92.3229 23.3062 92.3229 14.7803 87.0643 9.52165C81.8057 4.26304 73.2798 4.26304 68.0212 9.52166C62.7625 14.7803 62.7625 23.3062 68.0212 28.5648C73.2798 33.8234 81.8057 33.8234 87.0643 28.5648Z" stroke="#92E3A9" stroke-width="2" stroke-linecap="round" stroke-linejoin="round"/>
<path d="M68.9729 154.704C88.8703 154.704 105 152.217 105 149.15C105 146.082 88.8703 143.595 68.9729 143.595C49.0756 143.595 32.9455 146.082 32.9455 149.15C32.9455 152.217 49.0756 154.704 68.9729 154.704Z" fill="#263238"/>
<path d="M62.9992 88.668C62.382 91.3192 61.915 94.0031 61.6004 96.707C61.008 101.525 61.9871 109.049 61.9871 109.049C61.9871 109.049 54.9931 105.462 51.1875 105.935C47.382 106.408 32.0569 111.847 30.0368 111.658C30.0368 111.658 28.527 114.336 29.9957 114.299C32.0034 114.25 53.4009 114.71 56.8609 115.101C60.3949 115.513 65.4018 116.582 67.1462 114.986C68.3393 113.904 72.7044 100.327 72.7702 95.8759C72.7925 93.373 72.9683 90.8737 73.2968 88.3923" fill="white"/>
<path d="M62.9992 88.668C62.382 91.3192 61.915 94.0031 61.6004 96.707C61.008 101.525 61.9871 109.049 61.9871 109.049C61.9871 109.049 54.9931 105.462 51.1875 105.935C47.382 106.408 32.0569 111.847 30.0368 111.658C30.0368 111.658 28.527 114.336 29.9957 114.299C32.0034 114.25 53.4009 114.71 56.8609 115.101C60.3949 115.513 65.4018 116.582 67.1462 114.986C68.3393 113.904 72.7044 100.327 72.7702 95.8759C72.7925 93.373 72.9683 90.8737 73.2968 88.3923" stroke="#263238" stroke-linecap="round" stroke-linejoin="round"/>
<path d="M61.5963 96.6948C61.008 101.512 62.0077 109.037 62.0077 109.037C62.0077 109.037 55.0137 105.45 51.2081 105.923C49.8612 106.155 48.5299 106.469 47.2215 106.865C46.2671 108.72 45.4154 111.563 46.7443 114.624C51.385 114.764 55.5197 114.929 56.8815 115.089C60.4155 115.5 65.4224 116.57 67.1668 114.974C68.3599 113.892 72.725 100.315 72.7908 95.8637C72.8131 93.3608 72.9889 90.8615 73.3174 88.3801L63.0074 88.6393C62.3865 91.2959 61.9154 93.9853 61.5963 96.6948Z" fill="#263238" stroke="#263238" stroke-linecap="round" stroke-linejoin="round"/>
<path d="M68.2653 90.6673L65.9737 91.8234C65.9737 91.8234 65.2085 91.7411 66.6608 89.7334" fill="white"/>
<path d="M68.2653 90.6673L65.9737 91.8234C65.9737 91.8234 65.2085 91.7411 66.6608 89.7334" stroke="#263238" stroke-linecap="round" stroke-linejoin="round"/>
<path d="M75.9422 42.8571C75.9422 42.8571 73.6383 41.2608 69.7463 41.0839C65.8544 40.907 63.2131 46.2183 63.7274 49.5837C64.2416 52.949 64.0812 56.4872 59.4775 55.9564C54.8738 55.4257 49.2127 55.9564 47.9579 60.8934C46.7031 65.8303 52.2037 72.0468 58.3996 69.747C64.5954 67.4472 63.102 62.897 66.0107 61.9548C68.9194 61.0127 71.8528 61.0703 72.2066 57.5322C72.5604 53.994 70.2606 50.8056 71.8528 47.6171C72.8058 45.7197 74.21 44.0852 75.9422 42.8571Z" fill="#263238" stroke="#263238" stroke-linecap="round" stroke-linejoin="round"/>
<path d="M73.4244 43.5814C73.4244 43.5814 68.5944 42.6434 66.9816 46.667C65.3689 50.6906 68.9976 54.1794 67.8045 58.1866C66.6114 62.1937 62.0447 65.2958 58.2803 63.9463C54.5158 62.5969 50.8707 61.3133 50.6157 63.4403C50.3606 65.5673 53.1623 66.1227 53.8329 65.7195C54.5035 65.3163 53.5655 64.5141 53.5655 64.5141" stroke="white" stroke-linecap="round" stroke-linejoin="round"/>
<path d="M57.9593 59.2973C57.3986 59.1501 56.8258 59.0537 56.2478 59.0093" stroke="white" stroke-linecap="round" stroke-linejoin="round"/>
<path d="M69.6682 43.0464C69.6682 43.0464 65.1056 43.8692 65.1056 48.6786C65.1056 53.488 67.3848 56.4625 65.373 59.5481C63.9783 61.6875 62.0817 60.733 59.6873 59.8567" stroke="white" stroke-linecap="round" stroke-linejoin="round"/>
<path d="M78.5794 47.6296C78.5794 47.6296 78.7398 50.2174 78.168 51.7438C77.5961 53.2701 75.0412 55.7098 75.1893 57.0098C75.3374 58.3099 79.0648 60.9841 80.2538 60.5356C81.4428 60.0872 82.4343 53.3318 82.4343 53.3318C82.4343 53.3318 80.3443 48.5265 78.5794 47.6296Z" fill="white" stroke="#263238" stroke-linecap="round" stroke-linejoin="round"/>
<path d="M80.6652 52.332C81.4305 53.7637 82.0846 54.9527 83.7879 55.2653C86.1206 55.6767 86.9804 52.6734 87.2931 49.629C87.3705 49.6623 87.4522 49.6845 87.5358 49.6948C87.8273 49.7383 88.1249 49.7146 88.4059 49.6254C88.6868 49.5363 88.9437 49.3841 89.1568 49.1805C89.346 48.9872 89.0581 48.6169 88.6796 48.2178C87.5687 47.0412 87.4741 46.132 87.4865 44.5151C87.5234 43.7916 87.4625 43.0665 87.3054 42.3593C87.2634 42.2057 87.2125 42.0546 87.1532 41.9068C85.4541 37.7515 76.9502 37.5993 76.4894 42.7296C76.3575 44.544 76.5697 46.367 77.1148 48.1026" fill="white"/>
<mask id="mask1_1143_972" style="mask-type:luminance" maskUnits="userSpaceOnUse" x="76" y="38" width="14" height="18">
<path d="M80.6652 52.332C81.4305 53.7637 82.0846 54.9527 83.7879 55.2653C86.1206 55.6767 86.9804 52.6734 87.2931 49.629C87.3705 49.6623 87.4522 49.6845 87.5358 49.6948C87.8273 49.7383 88.1249 49.7146 88.4059 49.6254C88.6868 49.5363 88.9437 49.3841 89.1568 49.1805C89.346 48.9872 89.0581 48.6169 88.6796 48.2178C87.5687 47.0412 87.4741 46.132 87.4865 44.5151C87.5234 43.7916 87.4625 43.0665 87.3054 42.3593C87.2634 42.2057 87.2125 42.0546 87.1532 41.9068C85.4541 37.7515 76.9502 37.5993 76.4894 42.7296C76.3575 44.544 76.5697 46.367 77.1148 48.1026" fill="white"/>
</mask>
<g mask="url(#mask1_1143_972)">
<path d="M87.4864 44.5278C87.5234 43.8043 87.4625 43.0792 87.3054 42.372C87.2633 42.2184 87.2125 42.0673 87.1532 41.9195C85.454 37.7642 76.9501 37.612 76.4893 42.7423C76.3568 44.5483 76.5676 46.3631 77.1106 48.0906C80.5002 46.971 83.9799 46.1451 87.5111 45.6222C87.4864 45.2889 87.4864 44.931 87.4864 44.5278Z" fill="#92E3A9"/>
<path opacity="0.5" d="M87.4864 44.5278C87.5234 43.8043 87.4625 43.0792 87.3054 42.372C87.2633 42.2184 87.2125 42.0673 87.1532 41.9195C85.454 37.7642 76.9501 37.612 76.4893 42.7423C76.3568 44.5483 76.5676 46.3631 77.1106 48.0906C80.5002 46.971 83.9799 46.1451 87.5111 45.6222C87.4864 45.2889 87.4864 44.931 87.4864 44.5278Z" fill="white"/>
</g>
<path d="M80.6652 52.332C81.4305 53.7637 82.0846 54.9527 83.7879 55.2653C86.1206 55.6767 86.9804 52.6734 87.2931 49.629C87.3705 49.6623 87.4522 49.6845 87.5358 49.6948C87.8273 49.7383 88.1249 49.7146 88.4059 49.6254C88.6868 49.5363 88.9437 49.3841 89.1568 49.1805C89.346 48.9872 89.0581 48.6169 88.6796 48.2178C87.5687 47.0412 87.4741 46.132 87.4865 44.5151C87.5234 43.7916 87.4625 43.0665 87.3054 42.3593C87.2634 42.2057 87.2125 42.0546 87.1532 41.9068C85.4541 37.7515 76.9502 37.5993 76.4894 42.7296C76.3575 44.544 76.5697 46.367 77.1148 48.1026" stroke="#263238" stroke-linecap="round" stroke-linejoin="round"/>
<path d="M86.3097 46.4118C86.3097 46.7245 86.2233 46.9837 86.0752 46.9919C85.9271 47.0002 85.7955 46.7533 85.7749 46.4407C85.7543 46.128 85.8613 45.8688 86.0094 45.8606C86.1575 45.8523 86.2933 46.0909 86.3097 46.4118Z" fill="#263238"/>
<path d="M86.2522 50.8673C86.2522 50.8673 84.9891 50.9496 84.7341 50.0239" stroke="#263238" stroke-linecap="round" stroke-linejoin="round"/>
<path d="M86.6636 41.0881C84.2486 37.7721 76.4277 40.1953 75.9998 44.943C75.7859 47.3415 75.6954 50.5629 77.9993 50.9373C78.711 48.7033 81.0108 48.6416 80.9367 47.4938C80.8339 45.7905 84.2281 45.8481 83.7755 43.2727C83.4176 41.0387 85.1908 42.3881 86.6636 41.0881Z" fill="#263238" stroke="#263238" stroke-linecap="round" stroke-linejoin="round"/>
<path d="M76.0821 46.8479L87.9308 42.8531C87.9308 42.8531 86.3839 38.7389 84.3762 37.6857C82.3685 36.6325 77.5961 37.6857 75.9669 39.7757C74.3377 41.8657 75.3127 43.3797 76.0821 46.8479Z" fill="#92E3A9"/>
<mask id="mask2_1143_972" style="mask-type:luminance" maskUnits="userSpaceOnUse" x="75" y="37" width="13" height="10">
<path d="M76.0821 46.8479L87.9308 42.8531C87.9308 42.8531 86.3839 38.7389 84.3762 37.6857C82.3685 36.6325 77.5961 37.6857 75.9669 39.7757C74.3377 41.8657 75.3127 43.3797 76.0821 46.8479Z" fill="white"/>
</mask>
<g mask="url(#mask2_1143_972)">
<path opacity="0.2" d="M78.1226 40.9607C78.2543 38.9942 80.3072 37.7064 80.8709 37.3896C78.9496 37.69 76.9213 38.5539 75.9668 39.7758C74.3212 41.8658 75.3127 43.3798 76.082 46.848L79.7354 45.6138C79.0565 44.2808 78.0239 42.3883 78.1226 40.9607Z" fill="black"/>
</g>
<path d="M76.0821 46.8479L87.9308 42.8531C87.9308 42.8531 86.3839 38.7389 84.3762 37.6857C82.3685 36.6325 77.5961 37.6857 75.9669 39.7757C74.3377 41.8657 75.3127 43.3797 76.0821 46.8479Z" stroke="#263238" stroke-linecap="round" stroke-linejoin="round"/>
<path d="M83.973 44.2806C83.973 44.2806 89.0745 44.1037 91.5882 44.3629C94.102 44.6221 92.5427 43.3344 87.9308 42.853C87.9308 42.853 84.8534 43.9474 83.973 44.2806Z" fill="white" stroke="#263238" stroke-linecap="round" stroke-linejoin="round"/>
<path d="M76.5017 54.0393C76.5017 54.0393 81.2823 57.5363 82.3109 60.6918C83.5945 64.6373 83.0555 67.8216 81.8254 71.3886C80.5953 74.9555 78.9866 75.1201 78.0239 78.9133C76.9625 83.1015 76.7527 91.2845 74.6915 95.016C70.8654 101.948 60.1728 95.7606 59.9917 89.1122C59.7943 81.9248 66.4468 77.6338 67.2161 74.0216C68.039 70.105 67.1297 64.6825 68.94 61.0127C70.7502 57.3429 74.2101 53.9077 76.5017 54.0393Z" fill="#263238" stroke="#263238" stroke-linecap="round" stroke-linejoin="round"/>
<path d="M75.0947 57.4624C73.8728 57.7989 72.7813 58.4974 71.9639 59.466C69.9685 61.8439 67.5535 71.2036 67.0639 72.6312C66.344 74.7458 65.0892 82.357 65.5952 82.5051C66.1012 82.6532 69.2527 82.5544 74.7039 83.0769C80.1551 83.5994 90.3581 80.7319 90.3581 80.7319C90.3581 80.7319 92.0408 81.8633 93.5054 81.4189C93.6947 81.3613 93.8633 81.3037 94.0197 81.2503C94.4719 81.0918 94.8546 80.7804 95.1017 80.3698C95.2018 80.2148 95.2781 80.0456 95.328 79.8679C95.4109 79.6013 95.4223 79.3175 95.3609 79.0451C95.352 78.4512 95.2115 77.8667 94.9495 77.3336C94.5998 76.7371 94.3776 77.0662 93.8921 76.807C93.2828 76.5396 92.604 76.4733 91.9544 76.6178C91.543 76.7864 90.0989 78.7612 90.0989 78.7612C90.0989 78.7612 84.1088 79.4565 78.8468 77.7697C74.095 76.2516 72.9636 76.2598 72.9636 76.2598C72.9636 76.2598 77.5467 65.7318 79.1348 62.7861" fill="#92E3A9"/>
<path d="M75.0947 57.4624C73.8728 57.7989 72.7813 58.4974 71.9639 59.466C69.9685 61.8439 67.5535 71.2036 67.0639 72.6312C66.344 74.7458 65.0892 82.357 65.5952 82.5051C66.1012 82.6532 69.2527 82.5544 74.7039 83.0769C80.1551 83.5994 90.3581 80.7319 90.3581 80.7319C90.3581 80.7319 92.0408 81.8633 93.5054 81.4189C93.6947 81.3613 93.8633 81.3037 94.0197 81.2503C94.4719 81.0918 94.8546 80.7804 95.1017 80.3698C95.2018 80.2148 95.2781 80.0456 95.328 79.8679C95.4109 79.6013 95.4223 79.3175 95.3609 79.0451C95.352 78.4512 95.2115 77.8667 94.9495 77.3336C94.5998 76.7371 94.3776 77.0662 93.8921 76.807C93.2828 76.5396 92.604 76.4733 91.9544 76.6178C91.543 76.7864 90.0989 78.7612 90.0989 78.7612C90.0989 78.7612 84.1088 79.4565 78.8468 77.7697C74.095 76.2516 72.9636 76.2598 72.9636 76.2598C72.9636 76.2598 77.5467 65.7318 79.1348 62.7861" stroke="#263238" stroke-linecap="round" stroke-linejoin="round"/>
<path d="M93.5054 81.4476L93.8798 81.3242C94.1661 81.235 94.4315 81.0892 94.6605 80.8956C94.8895 80.702 95.0773 80.4644 95.2128 80.1969C95.2641 80.1023 95.3028 80.0013 95.328 79.8966C95.4109 79.63 95.4223 79.3462 95.3609 79.0738C95.352 78.4799 95.2115 77.8953 94.9495 77.3623C94.5998 76.7657 94.3776 77.0949 93.8921 76.8357C93.2828 76.5683 92.604 76.502 91.9544 76.6464C91.543 76.8151 90.0989 78.7899 90.0989 78.7899C88.7176 78.9148 87.3296 78.9505 85.9437 78.8969L85.9971 81.8302C88.5314 81.2748 90.3746 80.7564 90.3746 80.7564C90.3746 80.7564 92.0408 81.8837 93.5054 81.4476Z" fill="white" stroke="#263238" stroke-linecap="round" stroke-linejoin="round"/>
<path d="M93.8757 76.8398C93.8757 76.8398 94.3817 78.2386 94.0691 78.9751C93.7564 79.7115 92.7032 77.926 92.7032 77.926" stroke="#263238" stroke-linecap="round" stroke-linejoin="round"/>
<path d="M93.4396 80.2382L93.2297 78.8723C93.2297 78.8723 91.5512 80.6579 90.8148 79.9214" stroke="#263238" stroke-linecap="round" stroke-linejoin="round"/>
<path d="M84.2445 67.0728C84.0429 66.143 83.7796 65.2215 83.4957 64.304C83.1172 63.0986 82.6976 61.9014 82.3109 60.7124C82.2191 60.4413 82.1077 60.1773 81.9776 59.9225V59.3136C81.9776 58.6553 82.7469 57.4499 82.7469 57.4499C82.1752 56.814 81.5518 56.2264 80.8833 55.6932C79.4598 54.4877 76.9378 52.8462 76.9378 52.8462L75.7529 54.138C73.5066 54.6441 70.5609 57.7626 68.9399 61.0539C67.1297 64.7237 68.0554 70.1461 67.2161 74.0627C66.78 76.1198 64.4514 78.3784 62.5548 81.2666C66.9676 83.7866 71.8609 85.3508 76.9172 85.8579C77.271 83.266 77.5714 80.7482 78.0239 78.9544C78.5114 77.087 79.4543 75.3696 80.7681 73.9558C82.6647 71.8864 84.9315 70.2284 84.2445 67.0728Z" fill="#92E3A9"/>
<mask id="mask3_1143_972" style="mask-type:luminance" maskUnits="userSpaceOnUse" x="62" y="52" width="23" height="34">
<path d="M84.2445 67.0728C84.0429 66.143 83.7796 65.2215 83.4957 64.304C83.1172 63.0986 82.6976 61.9014 82.3109 60.7124C82.2191 60.4413 82.1077 60.1773 81.9776 59.9225V59.3136C81.9776 58.6553 82.7469 57.4499 82.7469 57.4499C82.1752 56.814 81.5518 56.2264 80.8833 55.6932C79.4598 54.4877 76.9378 52.8462 76.9378 52.8462L75.7529 54.138C73.5066 54.6441 70.5609 57.7626 68.9399 61.0539C67.1297 64.7237 68.0554 70.1461 67.2161 74.0627C66.78 76.1198 64.4514 78.3784 62.5548 81.2666C66.9676 83.7866 71.8609 85.3508 76.9172 85.8579C77.271 83.266 77.5714 80.7482 78.0239 78.9544C78.5114 77.087 79.4543 75.3696 80.7681 73.9558C82.6647 71.8864 84.9315 70.2284 84.2445 67.0728Z" fill="white"/>
</mask>
<g mask="url(#mask3_1143_972)">
<path opacity="0.2" d="M69.1456 83.1179C69.1456 82.509 73.4079 77.7942 74.3212 76.5765C75.2345 75.3587 70.5156 76.272 69.7545 76.272C68.9934 76.272 71.8856 72.7709 73.8687 69.1217C75.8517 65.4724 75.3868 64.555 75.3868 64.555L70.2071 62.2634C70.2071 62.2634 69.3843 62.6543 68.1829 63.2385C67.4095 66.6655 67.895 70.8537 67.212 74.0422C66.7759 76.0992 64.4473 78.3579 62.5507 81.246C64.6021 82.4307 66.7727 83.3959 69.0263 84.1259C69.0887 83.793 69.1286 83.4562 69.1456 83.1179Z" fill="black"/>
</g>
<path d="M84.2445 67.0728C84.0429 66.143 83.7796 65.2215 83.4957 64.304C83.1172 63.0986 82.6976 61.9014 82.3109 60.7124C82.2191 60.4413 82.1077 60.1773 81.9776 59.9225V59.3136C81.9776 58.6553 82.7469 57.4499 82.7469 57.4499C82.1752 56.814 81.5518 56.2264 80.8833 55.6932C79.4598 54.4877 76.9378 52.8462 76.9378 52.8462L75.7529 54.138C73.5066 54.6441 70.5609 57.7626 68.9399 61.0539C67.1297 64.7237 68.0554 70.1461 67.2161 74.0627C66.78 76.1198 64.4514 78.3784 62.5548 81.2666C66.9676 83.7866 71.8609 85.3508 76.9172 85.8579C77.271 83.266 77.5714 80.7482 78.0239 78.9544C78.5114 77.087 79.4543 75.3696 80.7681 73.9558C82.6647 71.8864 84.9315 70.2284 84.2445 67.0728Z" stroke="#263238" stroke-linecap="round" stroke-linejoin="round"/>
<path d="M76.9049 57.0179C75.7148 56.5942 74.4251 56.5369 73.2022 56.8534C70.203 57.6474 62.8387 63.9132 61.6127 64.806C59.8066 66.1184 54.4006 71.619 54.7133 72.0509C55.026 72.4829 57.6755 74.1944 61.8349 77.7613C65.9942 81.3283 74.5886 84.5579 74.5886 84.5579C74.5886 84.5579 76.6951 86.7507 78.1473 87.2279C78.5834 87.3719 78.9373 87.4666 79.2294 87.5324C79.3116 87.5612 79.398 87.59 79.4803 87.6106C79.7664 87.7148 80.0755 87.7388 80.3743 87.6801C80.673 87.6213 80.95 87.4821 81.1753 87.2773C81.3946 87.1072 81.5661 86.8833 81.6732 86.6273C82.0046 86.1326 82.2224 85.5705 82.3108 84.9816C82.3684 84.2946 81.3481 84.1588 81.1013 83.6775C80.7585 83.1059 80.2406 82.66 79.6243 82.4062C79.2129 82.3157 76.8761 83.0891 76.8761 83.0891C76.8761 83.0891 71.61 80.2093 68.2652 75.7783C65.2537 71.8041 64.3239 71.1582 64.3239 71.1582C64.3239 71.1582 74.132 65.1886 77.1147 63.6828" fill="#92E3A9"/>
<mask id="mask4_1143_972" style="mask-type:luminance" maskUnits="userSpaceOnUse" x="54" y="56" width="29" height="32">
<path d="M76.9049 57.0179C75.7148 56.5942 74.4251 56.5369 73.2022 56.8534C70.203 57.6474 62.8387 63.9132 61.6127 64.806C59.8066 66.1184 54.4006 71.619 54.7133 72.0509C55.026 72.4829 57.6755 74.1944 61.8349 77.7613C65.9942 81.3283 74.5886 84.5579 74.5886 84.5579C74.5886 84.5579 76.6951 86.7507 78.1473 87.2279C78.5834 87.3719 78.9373 87.4666 79.2294 87.5324C79.3116 87.5612 79.398 87.59 79.4803 87.6106C79.7664 87.7148 80.0755 87.7388 80.3743 87.6801C80.673 87.6213 80.95 87.4821 81.1753 87.2773C81.3946 87.1072 81.5661 86.8833 81.6732 86.6273C82.0046 86.1326 82.2224 85.5705 82.3108 84.9816C82.3684 84.2946 81.3481 84.1588 81.1013 83.6775C80.7585 83.1059 80.2406 82.66 79.6243 82.4062C79.2129 82.3157 76.8761 83.0891 76.8761 83.0891C76.8761 83.0891 71.61 80.2093 68.2652 75.7783C65.2537 71.8041 64.3239 71.1582 64.3239 71.1582C64.3239 71.1582 74.132 65.1886 77.1147 63.6828" fill="white"/>
</mask>
<g mask="url(#mask4_1143_972)">
<path opacity="0.2" d="M80.7105 87.0675C77.3616 86.1542 73.4079 83.1098 70.5157 81.2831C67.6234 79.4564 59.712 72.7627 58.6464 72.4583C57.5809 72.1538 58.9509 71.6972 60.6253 70.4794C62.2998 69.2616 58.4942 70.4794 57.5809 70.4794C56.6675 70.4794 70.8201 61.3502 72.8031 59.0709C74.2965 57.3471 72.3176 57.5322 71.2603 57.7256C67.7921 59.688 62.6207 64.0696 61.6045 64.806C59.7984 66.1184 54.3924 71.619 54.7051 72.051C55.0178 72.483 57.6673 74.1944 61.8266 77.7614C65.986 81.3283 74.5804 84.5579 74.5804 84.5579C74.5804 84.5579 76.6868 86.7507 78.1391 87.228C78.5752 87.372 78.929 87.4666 79.2211 87.5324C79.3034 87.5612 79.3898 87.59 79.4721 87.6106C79.7582 87.7148 80.0673 87.7388 80.366 87.6801C80.6648 87.6214 80.9418 87.4821 81.1671 87.2773L81.2329 87.2198L80.7105 87.0675Z" fill="black"/>
</g>
<path d="M76.9049 57.0179C75.7148 56.5942 74.4251 56.5369 73.2022 56.8534C70.203 57.6474 62.8387 63.9132 61.6127 64.806C59.8066 66.1184 54.4006 71.619 54.7133 72.0509C55.026 72.4829 57.6755 74.1944 61.8349 77.7613C65.9942 81.3283 74.5886 84.5579 74.5886 84.5579C74.5886 84.5579 76.6951 86.7507 78.1473 87.2279C78.5834 87.3719 78.9373 87.4666 79.2294 87.5324C79.3116 87.5612 79.398 87.59 79.4803 87.6106C79.7664 87.7148 80.0755 87.7388 80.3743 87.6801C80.673 87.6213 80.95 87.4821 81.1753 87.2773C81.3946 87.1072 81.5661 86.8833 81.6732 86.6273C82.0046 86.1326 82.2224 85.5705 82.3108 84.9816C82.3684 84.2946 81.3481 84.1588 81.1013 83.6774C80.7585 83.1058 80.2406 82.66 79.6243 82.4062C79.2129 82.3157 76.8761 83.0891 76.8761 83.0891C76.8761 83.0891 71.61 80.2093 68.2652 75.7783C65.2537 71.8041 64.3239 71.1582 64.3239 71.1582C64.3239 71.1582 74.132 65.1886 77.1147 63.6828" stroke="#263238" stroke-linecap="round" stroke-linejoin="round"/>
<path d="M81.1055 83.6774C80.7627 83.1058 80.2447 82.66 79.6285 82.4062C79.2171 82.3157 76.8803 83.0891 76.8803 83.0891C76.0312 82.6062 75.2073 82.0803 74.4118 81.5134L72.5152 83.7227C73.7494 84.2534 74.5722 84.5455 74.5722 84.5455C74.5722 84.5455 76.6787 86.7384 78.131 87.2156C78.5671 87.3596 78.9209 87.4542 79.213 87.52C79.2953 87.5488 79.3816 87.5776 79.4639 87.5982C79.75 87.7024 80.0591 87.7265 80.3579 87.6677C80.6566 87.609 80.9336 87.4697 81.1589 87.265C81.3782 87.0948 81.5497 86.8709 81.6568 86.6149C81.9882 86.1202 82.206 85.5582 82.2944 84.9693C82.3726 84.2946 81.3523 84.167 81.1055 83.6774Z" fill="white" stroke="#263238" stroke-linecap="round" stroke-linejoin="round"/>
<path d="M80.4101 48.3619C80.4101 48.3619 79.1265 46.0251 78.1145 46.8479C77.1024 47.6707 78.3078 49.23 79.6532 49.6784C80.9985 50.1269 80.4431 49.267 80.4431 49.267" fill="white"/>
<path d="M80.4101 48.3619C80.4101 48.3619 79.1265 46.0251 78.1145 46.8479C77.1024 47.6707 78.3078 49.23 79.6532 49.6784C80.9985 50.1269 80.4431 49.267 80.4431 49.267" stroke="#263238" stroke-linecap="round" stroke-linejoin="round"/>
<path d="M65.7474 95.0696C67.6231 97.0428 69.6078 98.9094 71.6923 100.661C75.395 103.8 82.138 106.667 82.138 106.667C82.138 106.667 78.4641 115.237 78.5999 119.051C78.7357 122.865 82.784 138.634 82.4137 140.625C82.4137 140.625 84.6435 142.316 85.0426 140.905C85.6926 138.626 86.9104 120.1 87.3959 116.57C87.8731 113.11 89.1403 106.881 89.1362 105.273C89.1362 102.187 80.8421 93.3705 77.16 90.8732C75.082 89.4778 73.0912 87.9569 71.1986 86.3188" fill="white"/>
<path d="M65.7474 95.0696C67.6231 97.0428 69.6078 98.9094 71.6923 100.661C75.395 103.8 82.138 106.667 82.138 106.667C82.138 106.667 78.4641 115.237 78.5999 119.051C78.7357 122.865 82.784 138.634 82.4137 140.625C82.4137 140.625 84.6435 142.316 85.0426 140.905C85.6926 138.626 86.9104 120.1 87.3959 116.57C87.8731 113.11 89.1403 106.881 89.1362 105.273C89.1362 102.187 80.8421 93.3705 77.16 90.8732C75.082 89.4778 73.0912 87.9569 71.1986 86.3188" stroke="#263238" stroke-linecap="round" stroke-linejoin="round"/>
<path d="M77.16 90.869C75.082 89.4736 73.0912 87.9527 71.1986 86.3147L65.7474 95.0696C67.6231 97.0428 69.6078 98.9094 71.6923 100.661C75.395 103.8 82.138 106.667 82.138 106.667C82.138 106.667 78.4641 115.237 78.5999 119.051C78.7538 120.766 79.0162 122.47 79.3857 124.152C81.7837 124.65 84.249 124.736 86.6759 124.407C86.968 120.853 87.2272 117.8 87.3959 116.57C87.8731 113.11 89.1403 106.881 89.1362 105.273C89.1321 102.187 80.8421 93.3704 77.16 90.869Z" fill="#263238" stroke="#263238" stroke-linecap="round" stroke-linejoin="round"/>
<path d="M64.8834 96.1187C66.743 97.6244 69.6558 99.8214 71.6923 100.644" stroke="white" stroke-linecap="round" stroke-linejoin="round"/>
<path d="M63.0773 94.6128C63.0773 94.6128 63.3941 94.8884 63.9001 95.3245" stroke="white" stroke-linecap="round" stroke-linejoin="round"/>
<path d="M68.9894 85.6729L75.3375 89.2768" stroke="white" stroke-linecap="round" stroke-linejoin="round"/>
<path d="M64.9534 83.5295C64.9534 83.5295 62.2134 84.9736 62.3574 86.2695C62.5014 87.5655 65.6734 85.4056 65.3854 86.8455C65.0974 88.2855 63.534 88.5529 65.0974 89.1536C66.6608 89.7542 73.6054 95.3535 77.9335 98.2416C82.2615 101.13 86.7294 105.018 86.2975 106.17C85.8655 107.322 81.8254 117.689 82.6894 124.486" stroke="white" stroke-linecap="round" stroke-linejoin="round"/>
<path d="M46.3452 111.917C46.3452 111.917 56.7292 113.501 61.0532 113.933C65.3771 114.365 65.8132 113.501 65.0933 112.637C64.3733 111.773 65.8132 112.925 66.1012 111.625C66.3892 110.325 66.9693 102.253 67.1133 100.233" stroke="white" stroke-linecap="round" stroke-linejoin="round"/>
<path d="M30.4317 111.88C30.4317 111.88 27.7617 108.144 26.8854 108.589C26.0091 109.033 23.9273 110.489 22.8 111.094C21.6728 111.699 19.6568 114.139 19.6733 114.929C19.6898 115.718 21.825 114.439 23.2402 114.155C24.6555 113.871 29.9956 114.324 29.9956 114.324C29.9956 114.324 29.7077 112.271 30.4317 111.88Z" fill="#92E3A9" stroke="#263238" stroke-linecap="round" stroke-linejoin="round"/>
<path d="M27.737 108.856C27.3914 108.605 27.0911 108.477 26.8854 108.58C26.0132 109.016 23.9273 110.481 22.8 111.086C21.6728 111.69 19.6568 114.13 19.6733 114.92C19.6733 115.212 19.9777 115.22 20.418 115.101C21.2778 113.394 23.1333 112.505 24.8859 110.987C25.7823 110.207 26.7353 109.495 27.737 108.856Z" fill="white" stroke="#263238" stroke-linecap="round" stroke-linejoin="round"/>
<path d="M82.4137 140.625C82.4137 140.625 80.4924 144.801 81.3153 145.34C82.1381 145.879 84.4338 146.985 85.5199 147.644C86.606 148.302 89.7204 148.878 90.3992 148.467C91.0781 148.055 88.9058 146.841 87.9596 145.755C87.0133 144.669 85.0509 140.913 85.0509 140.913C85.0509 140.913 83.1131 141.061 82.4137 140.625Z" fill="#92E3A9" stroke="#263238" stroke-linecap="round" stroke-linejoin="round"/>
<path d="M90.391 148.458C90.6831 148.282 90.4404 147.952 89.9796 147.549C89.3637 147.621 88.7424 147.634 88.1241 147.586C86.931 147.467 82.8457 145.291 81.1301 144.353C81.0602 144.83 81.089 145.204 81.2947 145.34C82.1175 145.883 84.4132 146.986 85.4993 147.644C86.5854 148.302 89.7122 148.866 90.391 148.458Z" fill="white" stroke="#263238" stroke-linecap="round" stroke-linejoin="round"/>
</g>
</svg>
