<svg width="28" height="28" viewBox="0 0 28 28" fill="none" xmlns="http://www.w3.org/2000/svg">
<path d="M10.2083 16.0415C10.2083 15.5583 10.6001 15.1665 11.0833 15.1665H18.0833C18.5666 15.1665 18.9583 15.5583 18.9583 16.0415C18.9583 16.5247 18.5666 16.9165 18.0833 16.9165H11.0833C10.6001 16.9165 10.2083 16.5247 10.2083 16.0415Z" fill="#13193A"/>
<path d="M11.0833 11.0835C10.6001 11.0835 10.2083 11.4753 10.2083 11.9585C10.2083 12.4417 10.6001 12.8335 11.0833 12.8335H14C14.4832 12.8335 14.875 12.4417 14.875 11.9585C14.875 11.4753 14.4832 11.0835 14 11.0835H11.0833Z" fill="#13193A"/>
<path fill-rule="evenodd" clip-rule="evenodd" d="M19.9757 3.2085H20.2879C22.9442 3.2085 24.7896 5.81422 24.7896 8.60449V14.0002H24.7917V21.5835C24.7917 24.3219 22.5717 26.5418 19.8333 26.5418H8.74999C6.47601 26.5418 4.60725 24.807 4.39505 22.5886C4.17908 22.469 3.97739 22.3219 3.79793 22.1431C3.04996 21.3981 2.89747 20.3256 3.31166 19.1256C3.41185 18.8353 3.53101 18.5658 3.63272 18.3357C3.66961 18.2522 3.7042 18.174 3.73476 18.1018C3.85703 17.8131 3.97388 17.4972 4.07567 17.0337C4.28472 16.0816 4.43885 14.4692 4.36696 11.2098L4.36675 11.2001V8.60449C4.36675 5.81421 6.21209 3.2085 8.8685 3.2085H9.19102C9.55137 2.18896 10.5237 1.4585 11.6667 1.4585H17.5C18.643 1.4585 19.6153 2.18896 19.9757 3.2085ZM9.19102 4.9585H8.8685C7.51891 4.9585 6.11675 6.40101 6.11675 8.60449V11.1809C6.18898 14.4723 6.0394 16.2502 5.78494 17.409C5.65484 18.0015 5.49978 18.4216 5.34621 18.7843C5.29378 18.9081 5.24697 19.0138 5.20382 19.1112C5.11448 19.313 5.04091 19.4792 4.9659 19.6965C4.7043 20.4544 4.88889 20.7598 5.03289 20.9032C5.24658 21.116 5.69768 21.2918 6.3567 21.2918H19.3737C20.7963 21.2918 23.1125 19.732 23.0397 14.8923L23.0396 14.8792V8.60449C23.0396 6.40101 21.6375 4.9585 20.2879 4.9585H19.9757C19.6153 5.97803 18.643 6.7085 17.5 6.7085H11.6667C10.5237 6.7085 9.55137 5.97803 9.19102 4.9585ZM10.7917 4.0835C10.7917 3.60025 11.1834 3.2085 11.6667 3.2085H17.5C17.9832 3.2085 18.375 3.60025 18.375 4.0835C18.375 4.56674 17.9832 4.9585 17.5 4.9585H11.6667C11.1834 4.9585 10.7917 4.56674 10.7917 4.0835ZM19.3737 23.0418C20.7293 23.0418 22.0459 22.3876 23.0417 21.1225V21.5835C23.0417 23.3554 21.6053 24.7918 19.8333 24.7918H8.74999C7.60681 24.7918 6.6343 24.061 6.27412 23.0411C6.30175 23.0416 6.32928 23.0418 6.3567 23.0418H19.3737Z" fill="#13193A"/>
</svg>
