<svg width="28" height="30" viewBox="0 0 28 30" fill="none" xmlns="http://www.w3.org/2000/svg">
<path d="M9.12012 13.2598C8.2917 13.2598 7.62012 13.9314 7.62012 14.7598C7.62012 15.5882 8.2917 16.2598 9.12012 16.2598H9.14012C9.96854 16.2598 10.6401 15.5882 10.6401 14.7598C10.6401 13.9314 9.96854 13.2598 9.14012 13.2598H9.12012Z" fill="#0D0D0D"/>
<path d="M12.6396 14.7598C12.6396 13.9314 13.3112 13.2598 14.1396 13.2598H14.1596C14.988 13.2598 15.6596 13.9314 15.6596 14.7598C15.6596 15.5882 14.988 16.2598 14.1596 16.2598H14.1396C13.3112 16.2598 12.6396 15.5882 12.6396 14.7598Z" fill="#0D0D0D"/>
<path d="M19.1602 13.2598C18.3318 13.2598 17.6602 13.9314 17.6602 14.7598C17.6602 15.5882 18.3318 16.2598 19.1602 16.2598H19.1802C20.0086 16.2598 20.6802 15.5882 20.6802 14.7598C20.6802 13.9314 20.0086 13.2598 19.1802 13.2598H19.1602Z" fill="#0D0D0D"/>
<path fill-rule="evenodd" clip-rule="evenodd" d="M2.25 14.0245C2.25 7.51629 7.58868 2.25977 14.1503 2.25977C20.7119 2.25977 26.0505 7.51629 26.0505 14.0245C26.0505 20.5325 20.7119 25.789 14.1503 25.789C13.3754 25.789 12.6168 25.7158 11.8818 25.5754C11.5912 25.5199 11.3227 25.5383 11.0984 25.6214L7.15666 27.0827C4.9715 27.8928 2.83411 25.7843 3.61438 23.5883L4.31062 21.6288C4.44756 21.2434 4.38198 20.7653 4.10176 20.3297C2.92948 18.5073 2.25 16.3431 2.25 14.0245ZM14.1503 4.09058C8.57831 4.09058 4.08081 8.5488 4.08081 14.0245C4.08081 15.9803 4.65288 17.8023 5.64152 19.3392C6.16718 20.1564 6.39756 21.2235 6.03576 22.2418L5.33953 24.2012C5.07945 24.9332 5.7919 25.6361 6.52029 25.366L10.462 23.9048C11.0503 23.6868 11.6645 23.67 12.2251 23.7771C12.8475 23.8958 13.4911 23.9582 14.1503 23.9582C19.7223 23.9582 24.2197 19.5001 24.2197 14.0245C24.2197 8.5488 19.7223 4.09058 14.1503 4.09058Z" fill="#0D0D0D"/>
</svg>
