<svg width="28" height="28" viewBox="0 0 28 28" fill="none" xmlns="http://www.w3.org/2000/svg">
<path fill-rule="evenodd" clip-rule="evenodd" d="M1.45834 12.2502C1.45834 6.29009 6.28993 1.4585 12.25 1.4585C18.21 1.4585 23.0417 6.29009 23.0417 12.2502C23.0417 18.2102 18.21 23.0418 12.25 23.0418C6.28993 23.0418 1.45834 18.2102 1.45834 12.2502ZM12.25 3.2085C7.25642 3.2085 3.20834 7.25658 3.20834 12.2502C3.20834 17.2437 7.25642 21.2918 12.25 21.2918C17.2436 21.2918 21.2917 17.2437 21.2917 12.2502C21.2917 7.25658 17.2436 3.2085 12.25 3.2085Z" fill="#13193A"/>
<path d="M23.1308 25.6292C22.4766 25.5487 21.8576 25.183 21.4824 24.5577L20.2081 22.4338C19.8252 21.7955 19.9257 20.9785 20.452 20.4522C20.7944 20.1098 21.2597 19.9476 21.7188 19.9814C21.9656 19.9995 22.2106 20.0743 22.4338 20.2082L24.5579 21.4826C25.8082 22.2329 26.0206 23.9584 24.9895 24.9895C24.5435 25.4355 23.9674 25.6489 23.3966 25.6461C23.3077 25.6456 23.219 25.64 23.1308 25.6292Z" fill="#13193A"/>
</svg>
