<svg width="28" height="28" viewBox="0 0 28 28" fill="none" xmlns="http://www.w3.org/2000/svg">
<path fill-rule="evenodd" clip-rule="evenodd" d="M14 2.625C10.9394 2.625 8.45834 5.10609 8.45834 8.16667C8.45834 11.2272 10.9394 13.7083 14 13.7083C17.0606 13.7083 19.5417 11.2272 19.5417 8.16667C19.5417 5.10609 17.0606 2.625 14 2.625ZM10.2083 8.16667C10.2083 6.07258 11.906 4.375 14 4.375C16.0941 4.375 17.7917 6.07258 17.7917 8.16667C17.7917 10.2608 16.0941 11.9583 14 11.9583C11.906 11.9583 10.2083 10.2608 10.2083 8.16667Z" fill="#13193A"/>
<path fill-rule="evenodd" clip-rule="evenodd" d="M10.1685 15.4585C8.61827 15.4585 7.18379 16.2789 6.39769 17.615L5.62563 18.9273C5.01625 19.963 4.75486 21.1726 5.00441 22.2599C5.26488 23.3947 6.0718 24.3194 7.39236 24.6606C11.0804 25.6134 16.9199 25.6134 20.608 24.6606C21.9285 24.3194 22.7355 23.3947 22.9959 22.2599C23.2455 21.1726 22.9841 19.963 22.3748 18.9273L21.6027 17.615C20.8166 16.2789 19.3821 15.4585 17.8319 15.4585H10.1685ZM7.90602 18.5024C8.37767 17.7007 9.23835 17.2085 10.1685 17.2085H17.8319C18.762 17.2085 19.6227 17.7007 20.0943 18.5024L20.8664 19.8147C21.3004 20.5523 21.4193 21.3065 21.2903 21.8685C21.1722 22.3829 20.8418 22.7927 20.1703 22.9662C16.7693 23.8448 11.231 23.8448 7.83008 22.9662C7.15858 22.7927 6.82813 22.3829 6.71007 21.8685C6.58109 21.3065 6.70001 20.5523 7.13394 19.8147L7.90602 18.5024Z" fill="#13193A"/>
</svg>
